<svg width="18" height="18" viewBox="0 0 18 18" fill="none" xmlns="http://www.w3.org/2000/svg">
<path d="M17.0331 0.968707C16.4754 0.417427 15.7421 0.0789827 14.9608 0.0121927C14.1794 -0.0545974 13.3994 0.154489 12.7562 0.603115C14.8237 1.46392 16.5127 3.03959 17.5147 5.04245C17.9015 4.40735 18.0643 3.66092 17.9769 2.92245C17.8896 2.18399 17.5573 1.4961 17.0331 0.968707Z" fill="#FFC016"/>
<path d="M5.39802 0.730834C4.7575 0.222126 3.95292 -0.0345319 3.13615 0.00930039C2.31937 0.0531327 1.54688 0.394423 0.964486 0.968759C0.386896 1.55017 0.0448135 2.32471 0.00410119 3.14324C-0.0366111 3.96177 0.226925 4.76643 0.743971 5.40229C1.67509 3.33062 3.32984 1.66968 5.39802 0.730834Z" fill="#FFC016"/>
<path d="M8.28794 1.11379C6.77283 1.29078 5.33816 1.89075 4.14812 2.84503C2.95807 3.79932 2.06072 5.06936 1.55877 6.50982C1.05682 7.95027 0.970547 9.50295 1.30982 10.9902C1.6491 12.4774 2.40021 13.839 3.47721 14.9192L1.99744 16.399C1.94371 16.4539 1.90132 16.5188 1.87268 16.5901C1.84404 16.6613 1.82972 16.7375 1.83052 16.8143C1.83133 16.8911 1.84726 16.967 1.87739 17.0376C1.90752 17.1082 1.95127 17.1722 2.00614 17.226C2.06101 17.2797 2.12592 17.3221 2.19717 17.3507C2.26843 17.3793 2.34462 17.3937 2.42141 17.3929C2.4982 17.3921 2.57407 17.3761 2.64471 17.346C2.71534 17.3159 2.77935 17.2721 2.83307 17.2172L4.37669 15.6736C5.78829 16.7418 7.51211 17.316 9.28231 17.3076C11.0525 17.2992 12.7708 16.7088 14.1722 15.6272L15.7623 17.2172C15.8733 17.3123 16.0161 17.362 16.1621 17.3564C16.3082 17.3507 16.4467 17.2902 16.5501 17.1868C16.6534 17.0835 16.714 16.9449 16.7196 16.7989C16.7252 16.6528 16.6756 16.51 16.5805 16.399L15.0195 14.8612C16.1909 13.6613 16.9623 12.1282 17.2278 10.4724C17.4934 8.81667 17.24 7.11929 16.5026 5.61322C15.7651 4.10715 14.5797 2.86618 13.1089 2.0606C11.6381 1.25501 9.95413 0.924281 8.28794 1.11379ZM10.1333 16.0915C8.69101 16.2804 7.22577 16.0129 5.94326 15.3265C4.66075 14.6402 3.62536 13.5695 2.98243 12.2646C2.33951 10.9598 2.12133 9.48642 2.35852 8.05128C2.59571 6.61613 3.27636 5.29129 4.30492 4.26272C5.33349 3.23415 6.65833 2.5535 8.09348 2.31631C9.52863 2.07912 11.002 2.2973 12.3068 2.94023C13.6117 3.58315 14.6824 4.61854 15.3687 5.90105C16.0551 7.18356 16.3226 8.64881 16.1337 10.0911C15.9344 11.6126 15.2381 13.0257 14.153 14.1108C13.0679 15.1959 11.6548 15.8922 10.1333 16.0915Z" fill="#FFC016"/>
<path d="M13.2321 10.5437L9.71545 8.80282V4.25323C9.71545 4.11472 9.66042 3.98187 9.56248 3.88393C9.46453 3.78598 9.33169 3.73096 9.19317 3.73096C9.05466 3.73096 8.92182 3.78598 8.82387 3.88393C8.72592 3.98187 8.6709 4.11472 8.6709 4.25323V9.47598L12.7679 11.507C12.8925 11.5678 13.0362 11.5766 13.1674 11.5315C13.2985 11.4863 13.4063 11.3909 13.4671 11.2662C13.5279 11.1416 13.5367 10.9978 13.4915 10.8667C13.4464 10.7356 13.351 10.6277 13.2263 10.5669L13.2321 10.5437Z" fill="#FFC016"/>
</svg>
