<svg width="21" height="15" viewBox="0 0 21 15" fill="none" xmlns="http://www.w3.org/2000/svg">
<path d="M15.5003 8.99997C15.7233 8.99997 15.9373 8.96597 16.1503 8.93497C16.0813 9.16697 16.0103 9.40297 15.8963 9.61497C15.7823 9.92297 15.6043 10.19 15.4273 10.459C15.2793 10.75 15.0183 10.947 14.8263 11.196C14.6253 11.438 14.3513 11.599 14.1343 11.8C13.9213 12.01 13.6423 12.115 13.4203 12.263C13.1883 12.396 12.9863 12.543 12.7703 12.613L12.2313 12.835L11.7573 13.032L12.2423 14.97L12.8393 14.826C13.0303 14.778 13.2633 14.722 13.5283 14.655C13.7993 14.605 14.0883 14.468 14.4103 14.343C14.7283 14.201 15.0963 14.105 15.4383 13.877C15.7823 13.659 16.1793 13.477 16.5293 13.185C16.8683 12.884 17.2773 12.623 17.5793 12.24C17.9093 11.882 18.2353 11.506 18.4883 11.078C18.7813 10.67 18.9803 10.222 19.1903 9.77897C19.3803 9.33597 19.5333 8.88297 19.6583 8.44297C19.8953 7.56097 20.0013 6.72297 20.0423 6.00597C20.0763 5.28797 20.0563 4.69097 20.0143 4.25897C19.9993 4.05497 19.9713 3.85697 19.9513 3.71997L19.9263 3.55197L19.9003 3.55797C19.7225 2.72714 19.313 1.96364 18.7194 1.35579C18.1257 0.747939 17.3721 0.320578 16.5457 0.123144C15.7193 -0.0742892 14.8539 -0.0337285 14.0496 0.240135C13.2453 0.513999 12.5349 1.00997 12.0007 1.67069C11.4665 2.3314 11.1303 3.12985 11.0309 3.97367C10.9316 4.8175 11.0731 5.67221 11.4392 6.43895C11.8053 7.20568 12.381 7.85311 13.0997 8.30632C13.8184 8.75954 14.6507 9.00003 15.5003 8.99997ZM4.50034 8.99997C4.72334 8.99997 4.93734 8.96597 5.15034 8.93497C5.08134 9.16697 5.01034 9.40297 4.89634 9.61497C4.78234 9.92297 4.60434 10.19 4.42734 10.459C4.27934 10.75 4.01834 10.947 3.82634 11.196C3.62534 11.438 3.35134 11.599 3.13434 11.8C2.92134 12.01 2.64234 12.115 2.42034 12.263C2.18834 12.396 1.98634 12.543 1.77034 12.613L1.23134 12.835L0.757341 13.032L1.24234 14.97L1.83934 14.826C2.03034 14.778 2.26334 14.722 2.52834 14.655C2.79934 14.605 3.08834 14.468 3.41034 14.343C3.72734 14.2 4.09634 14.105 4.43834 13.876C4.78234 13.658 5.17934 13.476 5.52934 13.184C5.86834 12.883 6.27734 12.622 6.57934 12.24C6.90934 11.882 7.23534 11.506 7.48834 11.078C7.78134 10.67 7.98034 10.222 8.19034 9.77897C8.38034 9.33597 8.53334 8.88297 8.65834 8.44297C8.89534 7.56097 9.00134 6.72297 9.04234 6.00597C9.07634 5.28797 9.05634 4.69097 9.01434 4.25897C8.99934 4.05497 8.97134 3.85697 8.95134 3.71997L8.92634 3.55197L8.90034 3.55797C8.72248 2.72714 8.31304 1.96364 7.71938 1.35579C7.12572 0.747939 6.3721 0.320578 5.5457 0.123144C4.7193 -0.0742892 3.8539 -0.0337285 3.04959 0.240135C2.24528 0.513999 1.53494 1.00997 1.00073 1.67069C0.466531 2.3314 0.130294 3.12985 0.0309234 3.97367C-0.0684476 4.8175 0.0731063 5.67221 0.439209 6.43895C0.805311 7.20568 1.381 7.85311 2.09969 8.30632C2.81837 8.75954 3.65069 9.00003 4.50034 8.99997Z" fill="#FFC000"/>
</svg>
