<svg width="13" height="12" viewBox="0 0 13 12" fill="none" xmlns="http://www.w3.org/2000/svg">
<path d="M12.2189 1.875C12.2189 2.29711 11.8821 2.68594 11.3144 3C10.629 3.37734 9.60909 3.64453 8.43374 3.72422C8.34894 3.68437 8.25944 3.64453 8.16993 3.60703C7.23954 3.22031 6.00531 3 4.68157 3C4.48607 3 4.29528 3.00469 4.10449 3.01406L4.07858 3C3.51093 2.68594 3.17411 2.29711 3.17411 1.875C3.17411 0.839531 5.17856 0 7.69649 0C10.1932 0 12.2189 0.839531 12.2189 1.875ZM3.94432 3.77578C4.18458 3.75938 4.42954 3.75 4.68157 3.75C6.14663 3.75 7.44682 4.03828 8.27357 4.48594C8.85771 4.80234 9.20396 5.19609 9.20396 5.625C9.20396 5.69766 9.18747 5.81016 9.15449 5.89922C9.04614 6.20859 8.73523 6.49219 8.3301 6.73359C8.32774 6.73359 8.32303 6.73594 8.32068 6.73828C8.31361 6.74297 8.30655 6.74531 8.29948 6.75C7.47509 7.20469 6.16077 7.5 4.68157 7.5C3.27774 7.5 2.02137 7.23516 1.19179 6.81797C1.14775 6.79453 1.10488 6.75234 1.06342 6.75C0.495532 6.43594 0.15918 6.04688 0.15918 5.625C0.15918 4.80938 1.41768 4.11328 3.17411 3.85781C3.42142 3.82031 3.67816 3.79219 3.94432 3.77578ZM9.39003 4.37344C10.0566 4.27031 10.6667 4.10625 11.1849 3.89297C11.5688 3.73359 11.9245 3.53672 12.2189 3.29531V4.125C12.2189 4.57734 11.8302 4.99453 11.1872 5.31797C10.841 5.49141 10.4241 5.63672 9.95298 5.74922C9.95533 5.70938 9.95769 5.66719 9.95769 5.625C9.95769 5.11172 9.70801 4.68984 9.39003 4.37344ZM9.20396 7.875C9.20396 8.29688 8.86713 8.68594 8.29948 9C8.25708 9.00234 8.21468 9.04453 8.17229 9.06797C7.34083 9.48516 6.08539 9.75 4.68157 9.75C3.20237 9.75 1.88852 9.45469 1.06342 9C0.495532 8.68594 0.15918 8.29688 0.15918 7.875V7.04531C0.452428 7.28672 0.809744 7.48359 1.19391 7.64297C2.12453 8.02969 3.35783 8.25 4.68157 8.25C6.00531 8.25 7.23954 8.02969 8.16993 7.64297C8.35365 7.56797 8.53031 7.48125 8.69754 7.3875C8.84122 7.30781 8.97548 7.21875 9.10267 7.125C9.13801 7.09922 9.17098 7.07109 9.20396 7.04531V7.875ZM9.95769 6.51797C10.384 6.40078 10.8174 6.29531 11.1849 6.14297C11.5688 5.98359 11.9245 5.78672 12.2189 5.54531V6.375C12.2189 6.62109 12.1011 6.86719 11.8679 7.09922C11.484 7.48125 10.808 7.79531 9.95298 7.99922C9.95533 7.95937 9.95769 7.91719 9.95769 7.875V6.51797ZM4.68157 10.5C6.00531 10.5 7.23954 10.2797 8.16993 9.89297C8.55386 9.73359 8.90953 9.53672 9.20396 9.29531V10.125C9.20396 11.1609 7.1783 12 4.68157 12C2.18389 12 0.15918 11.1609 0.15918 10.125V9.29531C0.452428 9.53672 0.809744 9.73359 1.19391 9.89297C2.12453 10.2797 3.35783 10.5 4.68157 10.5Z" fill="#FFC016"/>
</svg>
