<svg width="20" height="19" viewBox="0 0 20 19" fill="none" xmlns="http://www.w3.org/2000/svg">
<path d="M17.0586 0H3.01035C1.36182 0 0 1.39382 0 3.08108V12.6178C0 14.3784 1.36182 15.6988 3.01035 15.6988H9.24606C10.6796 15.6988 12.1131 16.2124 13.2599 17.0927L15.2668 18.7066C15.4818 18.8533 15.6968 19 15.9835 19C16.1268 19 16.3419 19 16.4852 18.8533C16.9153 18.6332 17.1303 18.2664 17.1303 17.7529V15.6255C18.7071 15.5521 19.9973 14.1583 19.9973 12.5444V3.00772C20.069 1.39382 18.7071 0 17.0586 0ZM15.0517 7.84942C15.0517 8.28958 14.6934 8.58301 14.335 8.58301C13.9766 8.58301 13.6182 8.28958 13.6182 7.84942C13.6182 7.40927 13.9049 7.11583 14.335 7.11583C14.765 7.11583 15.0517 7.48263 15.0517 7.84942ZM10.7512 7.84942C10.7512 8.28958 10.3929 8.58301 10.0345 8.58301C9.60443 8.58301 9.31774 8.28958 9.31774 7.84942C9.31774 7.40927 9.60443 7.11583 10.0345 7.11583C10.4645 7.11583 10.7512 7.48263 10.7512 7.84942ZM6.45074 7.84942C6.45074 8.28958 6.16404 8.58301 5.73399 8.58301C5.30394 8.58301 5.01724 8.28958 5.01724 7.84942C5.01724 7.40927 5.30394 7.11583 5.73399 7.11583C6.16404 7.11583 6.45074 7.48263 6.45074 7.84942Z" fill="#FFC000"/>
</svg>
