<svg width="22" height="22" viewBox="0 0 22 22" fill="none" xmlns="http://www.w3.org/2000/svg">
<path d="M11 0C4.92545 0 0 4.92545 0 11C0 17.0746 4.92545 22 11 22C17.0746 22 22 17.0746 22 11C22 4.92545 17.0746 0 11 0ZM11 20.1339C5.9567 20.1339 1.86607 16.0433 1.86607 11C1.86607 5.9567 5.9567 1.86607 11 1.86607C16.0433 1.86607 20.1339 5.9567 20.1339 11C20.1339 16.0433 16.0433 20.1339 11 20.1339ZM11.1375 7.05424C12.4388 7.05424 13.3228 7.88415 13.421 9.10201C13.4283 9.20513 13.5143 9.28371 13.6174 9.28371H15.0096C15.0734 9.28371 15.125 9.23214 15.125 9.1683C15.125 7.03951 13.4455 5.54911 11.1301 5.54911C8.4317 5.54911 6.875 7.37098 6.875 10.3812V11.6654C6.875 14.6536 8.4317 16.4509 11.1301 16.4509C13.4382 16.4509 15.125 15.0071 15.125 12.979C15.125 12.9152 15.0734 12.8636 15.0096 12.8636H13.615C13.5118 12.8636 13.4283 12.9422 13.4185 13.0429C13.3154 14.1748 12.4339 14.9531 11.135 14.9531C9.5317 14.9531 8.62812 13.777 8.62812 11.6728V10.3812C8.63058 8.24509 9.53661 7.05424 11.1375 7.05424Z" fill="#FFC016"/>
</svg>
