<svg width="16" height="14" viewBox="0 0 16 14" fill="none" xmlns="http://www.w3.org/2000/svg">
<path d="M14.4516 0H6.19355V2.4055H8.25806V3.3677H1.54839C0.670968 3.3677 0 3.99313 0 4.811V10.1031C0 10.921 0.670968 11.5464 1.54839 11.5464H2.06452V14L5.31613 11.5464H8.77419V8.17869H14.4516C15.329 8.17869 16 7.55327 16 6.7354V1.4433C16 0.62543 15.329 0 14.4516 0ZM5.57419 9.57388L5.31613 8.80412H3.71613L3.40645 9.57388H2.16774L3.87097 5.2921H5.10968L6.8129 9.57388H5.57419ZM13.4194 5.7732V6.7354C12.7484 6.7354 12.0258 6.54296 11.4065 6.2543C10.7871 6.54296 10.0645 6.68729 9.34194 6.7354L9.29032 5.7732C9.65161 5.7732 10.0129 5.72509 10.3742 5.62887C9.90968 5.19588 9.6 4.66667 9.44516 4.08935H10.529C10.6839 4.52234 10.9935 4.85911 11.3548 5.14777C11.9226 4.71478 12.2839 4.08935 12.3355 3.3677H9.23871V2.4055H10.7871V1.4433H11.8194V2.4055H13.5226L13.5742 2.8866C13.6258 3.89691 13.2129 4.90722 12.4387 5.62887C12.8 5.72509 13.1097 5.7732 13.4194 5.7732Z" fill="#FFC016"/>
</svg>
