<svg width="16" height="16" viewBox="0 0 16 16" fill="none" xmlns="http://www.w3.org/2000/svg">
<path d="M9 11.6C9.68956 11.6 10.3509 11.3261 10.8385 10.8385C11.3261 10.3509 11.6 9.68956 11.6 9V2.6C11.6 1.91044 11.3261 1.24912 10.8385 0.761522C10.3509 0.273928 9.68956 0 9 0H2.6C1.91044 0 1.24912 0.273928 0.761522 0.761522C0.273928 1.24912 0 1.91044 0 2.6V9C0 9.68956 0.273928 10.3509 0.761522 10.8385C1.24912 11.3261 1.91044 11.6 2.6 11.6H9ZM4.4 12.4H5.6V13.4C5.6 14.1728 6.2272 14.8 7 14.8H13.4C13.7713 14.8 14.1274 14.6525 14.3899 14.3899C14.6525 14.1274 14.8 13.7713 14.8 13.4V7C14.8 6.6287 14.6525 6.2726 14.3899 6.01005C14.1274 5.7475 13.7713 5.6 13.4 5.6H12.4V4.4H13.4C13.7414 4.4 14.0795 4.46725 14.395 4.59791C14.7104 4.72858 14.997 4.92009 15.2385 5.16152C15.4799 5.40296 15.6714 5.68958 15.8021 6.00502C15.9327 6.32047 16 6.65856 16 7V13.4C16 13.7414 15.9327 14.0795 15.8021 14.395C15.6714 14.7104 15.4799 14.997 15.2385 15.2385C14.997 15.4799 14.7104 15.6714 14.395 15.8021C14.0795 15.9327 13.7414 16 13.4 16H7C6.65856 16 6.32047 15.9327 6.00502 15.8021C5.68958 15.6714 5.40296 15.4799 5.16152 15.2385C4.92009 14.997 4.72858 14.7104 4.59791 14.395C4.46725 14.0795 4.4 13.7414 4.4 13.4V12.4Z" fill="#FFC016"/>
</svg>
