<svg width="409" height="134" viewBox="0 0 409 134" fill="none" xmlns="http://www.w3.org/2000/svg">
<g filter="url(#filter0_d_351_44)">
<path d="M2 16C2 7.71573 8.71573 1 17 1H391.496C399.78 1 406.496 7.71573 406.496 16V115.355C406.496 123.639 399.78 130.355 391.496 130.355H17C8.71572 130.355 2 123.639 2 115.355V16Z" fill="url(#paint0_radial_351_44)"/>
<path d="M391.496 130.355H54.7138C42.5173 130.355 35.742 116.8 43.8995 107.733C71.0128 77.5972 113.983 42.0894 153.059 47.1265C198.494 52.9835 319.143 30.4711 388.197 15.5677C397.599 13.5384 406.496 20.6801 406.496 30.299V115.355C406.496 123.639 399.78 130.355 391.496 130.355Z" fill="url(#paint1_linear_351_44)"/>
<path d="M391.496 129.352H108.378C96.1882 129.352 89.4549 115.837 97.7393 106.895C121.118 81.6603 156.5 53.5421 188.787 57.7125C227.254 62.6813 328.481 43.9302 388.182 31.1071C397.589 29.0865 406.496 36.2284 406.496 45.85V114.352C406.496 122.636 399.78 129.352 391.496 129.352Z" fill="url(#paint2_linear_351_44)"/>
</g>
<defs>
<filter id="filter0_d_351_44" x="0" y="0" width="408.496" height="133.355" filterUnits="userSpaceOnUse" color-interpolation-filters="sRGB">
<feFlood flood-opacity="0" result="BackgroundImageFix"/>
<feColorMatrix in="SourceAlpha" type="matrix" values="0 0 0 0 0 0 0 0 0 0 0 0 0 0 0 0 0 0 127 0" result="hardAlpha"/>
<feOffset dy="1"/>
<feGaussianBlur stdDeviation="1"/>
<feComposite in2="hardAlpha" operator="out"/>
<feColorMatrix type="matrix" values="0 0 0 0 0 0 0 0 0 0 0 0 0 0 0 0 0 0 0.25 0"/>
<feBlend mode="normal" in2="BackgroundImageFix" result="effect1_dropShadow_351_44"/>
<feBlend mode="normal" in="SourceGraphic" in2="effect1_dropShadow_351_44" result="shape"/>
</filter>
<radialGradient id="paint0_radial_351_44" cx="0" cy="0" r="1" gradientUnits="userSpaceOnUse" gradientTransform="translate(194.5 0.999998) rotate(89.5559) scale(129.004 378.357)">
<stop stop-color="#FFC016"/>
<stop offset="0.463542" stop-color="#FFEFC6"/>
<stop offset="1" stop-color="#FFC410"/>
</radialGradient>
<linearGradient id="paint1_linear_351_44" x1="367" y1="28" x2="129" y2="111.5" gradientUnits="userSpaceOnUse">
<stop stop-color="#FFC016"/>
<stop offset="1" stop-color="white" stop-opacity="0"/>
</linearGradient>
<linearGradient id="paint2_linear_351_44" x1="188" y1="63.5" x2="497" y2="194" gradientUnits="userSpaceOnUse">
<stop stop-color="#FFC016"/>
<stop offset="0.0001" stop-color="#FFC016"/>
<stop offset="1" stop-color="#FFFDF6"/>
</linearGradient>
</defs>
</svg>
