<svg width="16" height="13" viewBox="0 0 16 13" fill="none" xmlns="http://www.w3.org/2000/svg">
<path d="M16.0007 3.373V10.5C16.0007 11.163 15.7373 11.7989 15.2685 12.2678C14.7997 12.7366 14.1638 13 13.5007 13H2.50073C1.83769 13 1.20181 12.7366 0.732965 12.2678C0.264125 11.7989 0.000732422 11.163 0.000732422 10.5V3.373L7.74673 7.931C7.82369 7.97638 7.91139 8.00032 8.00073 8.00032C8.09007 8.00032 8.17778 7.97638 8.25473 7.931L16.0007 3.373ZM13.5007 3.09527e-08C14.1159 -9.6716e-05 14.7095 0.226607 15.1679 0.63674C15.6264 1.04687 15.9176 1.61164 15.9857 2.223L8.00073 6.92L0.0157325 2.223C0.0838907 1.61164 0.375056 1.04687 0.833527 0.63674C1.292 0.226607 1.88559 -9.6716e-05 2.50073 3.09527e-08H13.5007Z" fill="#FFC016"/>
</svg>
