<svg width="22" height="21" viewBox="0 0 22 21" fill="none" xmlns="http://www.w3.org/2000/svg">
<path d="M8 2.2927C3.58 2.2927 0 5.8727 0 10.2927C0 14.7127 3.58 18.2927 8 18.2927C12.42 18.2927 16 14.7127 16 10.2927C16 5.8727 12.42 2.2927 8 2.2927ZM8 13.7927C7.45 13.7927 7 13.3427 7 12.7927V8.7927H5.75C5.34 8.7927 5 8.4527 5 8.0427C5 7.6327 5.34 7.2927 5.75 7.2927H10.25C10.66 7.2927 11 7.6327 11 8.0427C11 8.4527 10.66 8.7927 10.25 8.7927H9V12.7927C9 13.3427 8.55 13.7927 8 13.7927ZM19.25 2.0427L21 2.8327C21.0873 2.87247 21.1613 2.93651 21.2132 3.01719C21.2651 3.09787 21.2927 3.19177 21.2927 3.2877C21.2927 3.38362 21.2651 3.47753 21.2132 3.5582C21.1613 3.63888 21.0873 3.70292 21 3.7427L19.25 4.5327L18.46 6.2927C18.4202 6.37999 18.3562 6.454 18.2755 6.5059C18.1948 6.5578 18.1009 6.58539 18.005 6.58539C17.9091 6.58539 17.8152 6.5578 17.7345 6.5059C17.6538 6.454 17.5898 6.37999 17.55 6.2927L16.76 4.5427L15 3.7527C14.9127 3.71292 14.8387 3.64888 14.7868 3.5682C14.7349 3.48753 14.7073 3.39362 14.7073 3.2977C14.7073 3.20177 14.7349 3.10787 14.7868 3.02719C14.8387 2.94651 14.9127 2.88247 15 2.8427L16.75 2.0527L17.54 0.292696C17.5798 0.205402 17.6438 0.131391 17.7245 0.0794932C17.8052 0.027595 17.8991 0 17.995 0C18.0909 0 18.1848 0.027595 18.2655 0.0794932C18.3462 0.131391 18.4102 0.205402 18.45 0.292696L19.25 2.0427ZM19.25 16.0427L21 16.8327C21.0873 16.8725 21.1613 16.9365 21.2132 17.0172C21.2651 17.0979 21.2927 17.1918 21.2927 17.2877C21.2927 17.3836 21.2651 17.4775 21.2132 17.5582C21.1613 17.6389 21.0873 17.7029 21 17.7427L19.25 18.5327L18.46 20.2927C18.4202 20.38 18.3562 20.454 18.2755 20.5059C18.1948 20.5578 18.1009 20.5854 18.005 20.5854C17.9091 20.5854 17.8152 20.5578 17.7345 20.5059C17.6538 20.454 17.5898 20.38 17.55 20.2927L16.76 18.5427L15 17.7527C14.9127 17.7129 14.8387 17.6489 14.7868 17.5682C14.7349 17.4875 14.7073 17.3936 14.7073 17.2977C14.7073 17.2018 14.7349 17.1079 14.7868 17.0272C14.8387 16.9465 14.9127 16.8825 15 16.8427L16.75 16.0527L17.54 14.2927C17.5798 14.2054 17.6438 14.1314 17.7245 14.0795C17.8052 14.0276 17.8991 14 17.995 14C18.0909 14 18.1848 14.0276 18.2655 14.0795C18.3462 14.1314 18.4102 14.2054 18.45 14.2927L19.25 16.0427Z" fill="#FFC000"/>
</svg>
