<svg width="16" height="16" viewBox="0 0 16 16" fill="none" xmlns="http://www.w3.org/2000/svg">
<path d="M9.3487 0V1.3302H13.7292L8.61573 6.44417C7.54297 5.61073 6.19286 5.21748 4.84032 5.34452C3.48778 5.47155 2.23452 6.10931 1.33573 7.12793C0.436935 8.14655 -0.0397976 9.46944 0.0026041 10.8272C0.0450058 12.185 0.603354 13.4756 1.56395 14.4361C2.52455 15.3967 3.81517 15.955 5.173 15.9974C6.53083 16.0398 7.85377 15.5631 8.87244 14.6643C9.8911 13.7656 10.5289 12.5124 10.6559 11.1599C10.783 9.80739 10.3897 8.45734 9.55622 7.38463L14.6697 2.27066V6.65102H16V0H9.3487ZM5.35792 14.6322C4.56862 14.6322 3.79705 14.3982 3.14077 13.9597C2.48449 13.5212 1.97298 12.898 1.67093 12.1688C1.36887 11.4396 1.28984 10.6372 1.44383 9.8631C1.59781 9.089 1.9779 8.37794 2.53602 7.81984C3.09414 7.26175 3.80523 6.88168 4.57936 6.7277C5.3535 6.57372 6.15591 6.65275 6.88513 6.95479C7.61435 7.25683 8.23762 7.76831 8.67614 8.42457C9.11465 9.08082 9.3487 9.85236 9.3487 10.6416C9.34747 11.6996 8.92662 12.7139 8.17847 13.4621C7.43032 14.2102 6.41597 14.631 5.35792 14.6322Z" fill="#FFC016"/>
</svg>
