<svg width="49" height="49" viewBox="0 0 49 49" fill="none" xmlns="http://www.w3.org/2000/svg">
<ellipse cx="24.2598" cy="24.5" rx="24.2598" ry="24.5" fill="white"/>
<path d="M44.1736 21.083H42.5784V21H24.7548V29H35.947C34.3142 33.657 29.9266 37 24.7548 37C18.1928 37 12.8725 31.627 12.8725 25C12.8725 18.373 18.1928 13 24.7548 13C27.7839 13 30.5396 14.154 32.6378 16.039L38.2393 10.382C34.7024 7.053 29.9712 5 24.7548 5C13.8181 5 4.95093 13.955 4.95093 25C4.95093 36.045 13.8181 45 24.7548 45C35.6916 45 44.5588 36.045 44.5588 25C44.5588 23.659 44.4221 22.35 44.1736 21.083Z" fill="#FFC107"/>
<path d="M7.23438 15.691L13.741 20.51C15.5015 16.108 19.7653 13 24.7549 13C27.7839 13 30.5396 14.154 32.6379 16.039L38.2394 10.382C34.7024 7.053 29.9713 5 24.7549 5C17.1482 5 10.5515 9.337 7.23438 15.691Z" fill="#FF3D00"/>
<path d="M24.755 45C29.8703 45 34.5183 43.023 38.0325 39.808L31.9032 34.57C29.8481 36.1484 27.3368 37.0021 24.755 37C19.604 37 15.2303 33.683 13.5826 29.054L7.12451 34.079C10.4021 40.556 17.0582 45 24.755 45Z" fill="#4CAF50"/>
<path d="M44.1736 21.083H42.5784V21H24.7549V29H35.9471C35.166 31.2164 33.7591 33.1532 31.9001 34.571L31.9031 34.569L38.0324 39.807C37.5987 40.205 44.5588 35 44.5588 25C44.5588 23.659 44.4222 22.35 44.1736 21.083Z" fill="#1976D2"/>
</svg>
