<svg width="51" height="48" viewBox="0 0 51 48" fill="none" xmlns="http://www.w3.org/2000/svg">
<path fill-rule="evenodd" clip-rule="evenodd" d="M4.7016 28.8004C8.61281 34.6883 15.2335 41.1873 25.5009 48C35.7682 41.1873 42.3889 34.6883 46.3001 28.8004H38.2514C37.9331 28.8003 37.6221 28.7046 37.3585 28.5255C37.0949 28.3464 36.8907 28.0922 36.7723 27.7956L32.1279 16.1414L27.0341 34.0387C26.943 34.3597 26.7543 34.644 26.4942 34.8519C26.2341 35.0598 25.9158 35.1809 25.5838 35.1982C25.2518 35.2155 24.9227 35.1281 24.6426 34.9483C24.3625 34.7685 24.1455 34.5053 24.0218 34.1955L18.7718 21.0181L14.0764 28.09C13.9306 28.3088 13.7333 28.4881 13.502 28.612C13.2707 28.7359 13.0125 28.8006 12.7504 28.8004H4.7016ZM2.80177 25.6005C-7.73333 5.37686 14.0573 -6.3989 24.9398 3.6585C25.1311 3.83449 25.3192 4.01689 25.5009 4.20569C25.6807 4.01706 25.8679 3.83559 26.0619 3.6617C36.9444 -6.3989 58.7351 5.37686 48.1968 25.6005H39.3256L33.352 10.6056C33.2283 10.2958 33.0113 10.0325 32.7312 9.85273C32.4511 9.67293 32.122 9.58555 31.79 9.60283C31.458 9.62012 31.1397 9.74119 30.8796 9.94911C30.6195 10.157 30.4308 10.4414 30.3397 10.7624L25.249 28.6596L20.6047 17.0054C20.4965 16.7351 20.3169 16.4995 20.0851 16.3241C19.8534 16.1488 19.5783 16.0402 19.2896 16.0103C19.0009 15.9803 18.7096 16.03 18.447 16.1541C18.1844 16.2781 17.9605 16.4718 17.7996 16.7142L11.8961 25.6005H2.80496H2.80177Z" fill="white"/>
</svg>
