<svg width="18" height="22" viewBox="0 0 18 22" fill="none" xmlns="http://www.w3.org/2000/svg">
<path d="M7.3125 12.0334H6.1875C5.25375 12.0334 4.5 11.2914 4.5 10.3723C4.5 9.45311 5.25375 8.71115 6.1875 8.71115H7.3125V7.60374C7.3125 6.6846 8.06625 5.94264 9 5.94264C9.93375 5.94264 10.6875 6.6846 10.6875 7.60374V8.71115H11.8125C12.7463 8.71115 13.5 9.45311 13.5 10.3723C13.5 11.2914 12.7463 12.0334 11.8125 12.0334H10.6875V13.1408C10.6875 14.0599 9.93375 14.8019 9 14.8019C8.06625 14.8019 7.3125 14.0599 7.3125 13.1408V12.0334ZM8.2125 0.139839L1.4625 2.6315C0.585 2.96372 0 3.7832 0 4.71342V9.91822C0 15.5106 3.83625 20.7265 9 22C14.1637 20.7265 18 15.5106 18 9.91822V4.71342C17.9992 4.26277 17.8588 3.82309 17.5974 3.45307C17.3361 3.08305 16.9664 2.8003 16.5375 2.64257L9.7875 0.150913C9.28125 -0.0484193 8.71875 -0.0484193 8.2125 0.139839Z" fill="#FFC016"/>
</svg>
