<svg width="47" height="48" viewBox="0 0 47 48" fill="none" xmlns="http://www.w3.org/2000/svg">
<path d="M6.26667 0C4.60464 0 3.01069 0.594956 1.83546 1.65399C0.660236 2.71301 0 4.14937 0 5.64706V39.5294C0 41.0271 0.660236 42.4635 1.83546 43.5225C3.01069 44.5815 4.60464 45.1765 6.26667 45.1765H19.6053C18.8072 44.3055 18.1169 43.3587 17.5467 42.3529H6.26667C5.43566 42.3529 4.63868 42.0555 4.05107 41.526C3.46345 40.9964 3.13333 40.2783 3.13333 39.5294H16.3153C15.4773 36.8695 15.4426 34.0562 16.2147 31.3802C16.9869 28.7042 18.538 26.2624 20.7076 24.3073C22.8773 22.3521 25.587 20.9544 28.5566 20.2586C31.5263 19.5628 34.6482 19.594 37.6 20.3492V5.64706C37.6 4.14937 36.9398 2.71301 35.7645 1.65399C34.5893 0.594956 32.9954 0 31.3333 0H6.26667ZM8.61667 7.05882H28.9833C29.6066 7.05882 30.2043 7.28193 30.645 7.67907C31.0857 8.0762 31.3333 8.61484 31.3333 9.17647C31.3333 9.73811 31.0857 10.2767 30.645 10.6739C30.2043 11.071 29.6066 11.2941 28.9833 11.2941H8.61667C7.99341 11.2941 7.39568 11.071 6.95497 10.6739C6.51426 10.2767 6.26667 9.73811 6.26667 9.17647C6.26667 8.61484 6.51426 8.0762 6.95497 7.67907C7.39568 7.28193 7.99341 7.05882 8.61667 7.05882ZM47 35.2941C47 38.6639 45.5145 41.8957 42.8702 44.2785C40.2259 46.6614 36.6396 48 32.9 48C29.1604 48 25.5741 46.6614 22.9298 44.2785C20.2855 41.8957 18.8 38.6639 18.8 35.2941C18.8 31.9243 20.2855 28.6925 22.9298 26.3097C25.5741 23.9269 29.1604 22.5882 32.9 22.5882C36.6396 22.5882 40.2259 23.9269 42.8702 26.3097C45.5145 28.6925 47 31.9243 47 35.2941ZM31.396 29.7431C31.1928 29.6173 30.9567 29.5416 30.7111 29.5232C30.4655 29.5049 30.2188 29.5447 29.9954 29.6386C29.8131 29.7109 29.6481 29.8145 29.5097 29.9435C29.2178 30.2131 29.0547 30.5749 29.0554 30.9515V39.6339C29.0535 39.821 29.0926 40.0067 29.1706 40.1802C29.2486 40.3536 29.3638 40.5115 29.5097 40.6447C29.6528 40.7729 29.8192 40.8779 30.0017 40.9553C30.3196 41.0866 30.6803 41.1067 31.0137 41.0118C31.1582 40.9689 31.2953 40.9081 31.4211 40.8311L38.6152 36.4066C38.8341 36.2766 39.0104 36.0963 39.1259 35.8842C39.245 35.6707 39.3062 35.4347 39.3046 35.1957C39.3029 34.9567 39.2385 34.7214 39.1165 34.5092C38.994 34.3002 38.8138 34.1232 38.5933 33.9953L31.396 29.7431Z" fill="white"/>
</svg>
