<svg width="27" height="22" viewBox="0 0 27 22" fill="none" xmlns="http://www.w3.org/2000/svg">
<path d="M17.1323 2.64902C17.5247 2.71089 17.6934 3.20503 17.4066 3.49808L15.8034 5.0746L16.1831 7.30898C16.2042 7.71289 15.833 8.02226 15.4702 7.8375L13.5084 6.78476L11.5298 7.85039C11.167 8.03515 10.7578 7.72578 10.8169 7.32617L11.1966 5.08749L9.59344 3.49808C9.30656 3.20503 9.47531 2.71089 9.86766 2.64902L12.0741 2.32503L13.0697 0.272071C13.2511 -0.0983624 13.7658 -0.0829366 13.9303 0.272071L14.9259 2.32503L17.1323 2.64902ZM16.2 11C16.9467 11 17.55 11.6144 17.55 12.375V20.625C17.55 21.3855 16.9467 22 16.2 22H10.8C10.0533 22 9.45 21.3855 9.45 20.625V12.375C9.45 11.6144 10.0533 11 10.8 11H16.2ZM6.75 13.75C7.49672 13.75 8.1 14.3645 8.1 15.125V20.625C8.1 21.3855 7.49672 22 6.75 22H1.35C0.604547 22 0 21.3855 0 20.625V15.125C0 14.3645 0.604547 13.75 1.35 13.75H6.75ZM18.9 17.875C18.9 17.1145 19.5033 16.5 20.25 16.5H25.65C26.3967 16.5 27 17.1145 27 17.875V20.625C27 21.3855 26.3967 22 25.65 22H20.25C19.5033 22 18.9 21.3855 18.9 20.625V17.875Z" fill="#FFC016"/>
</svg>
