<svg width="20" height="20" viewBox="0 0 20 20" fill="none" xmlns="http://www.w3.org/2000/svg">
<path d="M5.58275 8.7431C6.84853 7.47733 9.0561 7.47733 10.3219 8.7431L11.1117 9.53296L12.6914 7.95325L11.9016 7.16339C10.8481 6.10876 9.44489 5.52671 7.95232 5.52671C6.45975 5.52671 5.05655 6.10876 4.00304 7.16339L1.63236 9.53296C0.586997 10.5817 0 12.002 0 13.4828C0 14.9635 0.586997 16.3839 1.63236 17.4326C2.1506 17.9516 2.76627 18.3631 3.44402 18.6434C4.12176 18.9237 4.84822 19.0673 5.58163 19.066C6.31525 19.0675 7.04193 18.924 7.71989 18.6437C8.39784 18.3634 9.01369 17.9518 9.53203 17.4326L10.3219 16.6428L8.74217 15.0631L7.95232 15.8529C7.32275 16.4797 6.47055 16.8315 5.58219 16.8315C4.69383 16.8315 3.84164 16.4797 3.21207 15.8529C2.58477 15.2236 2.23252 14.3713 2.23252 13.4828C2.23252 12.5943 2.58477 11.742 3.21207 11.1127L5.58275 8.7431Z" fill="#FFC016"/>
<path d="M9.53198 1.63328L8.74212 2.42314L10.3218 4.00285L11.1117 3.21299C11.7413 2.58624 12.5935 2.23436 13.4818 2.23436C14.3702 2.23436 15.2224 2.58624 15.8519 3.21299C16.4792 3.84227 16.8315 4.69458 16.8315 5.58312C16.8315 6.47165 16.4792 7.32396 15.8519 7.95324L13.4813 10.3228C12.2155 11.5886 10.0079 11.5886 8.74212 10.3228L7.95227 9.53295L6.37256 11.1127L7.16241 11.9025C8.21593 12.9571 9.61912 13.5392 11.1117 13.5392C12.6043 13.5392 14.0075 12.9571 15.061 11.9025L17.4316 9.53295C18.477 8.48422 19.064 7.06386 19.064 5.58312C19.064 4.10237 18.477 2.68201 17.4316 1.63328C16.3832 0.587373 14.9627 0 13.4818 0C12.0009 0 10.5804 0.587373 9.53198 1.63328Z" fill="#FFC016"/>
</svg>
