<svg width="16" height="19" viewBox="0 0 16 19" fill="none" xmlns="http://www.w3.org/2000/svg">
<path d="M8 9.5C10.525 9.5 12.5714 7.37363 12.5714 4.75C12.5714 2.12637 10.525 0 8 0C5.475 0 3.42857 2.12637 3.42857 4.75C3.42857 7.37363 5.475 9.5 8 9.5ZM11.4214 10.7098L9.71429 17.8125L8.57143 12.7656L9.71429 10.6875H6.28571L7.42857 12.7656L6.28571 17.8125L4.57857 10.7098C2.03214 10.8359 0 12.9994 0 15.675V17.2188C0 18.2021 0.767857 19 1.71429 19H14.2857C15.2321 19 16 18.2021 16 17.2188V15.675C16 12.9994 13.9679 10.8359 11.4214 10.7098Z" fill="#FFC016"/>
</svg>
