<svg width="62" height="50" viewBox="0 0 62 50" fill="none" xmlns="http://www.w3.org/2000/svg">
<path d="M31 0C34.8233 0 37.8889 2.78125 37.8889 6.25C37.8889 9.71875 34.8233 12.5 31 12.5C27.1767 12.5 24.1111 9.71875 24.1111 6.25C24.1111 2.78125 27.2111 0 31 0ZM62 37.5V31.25C54.2844 31.25 47.6711 28.25 42.7111 22.875L38.0956 17.875C37.4547 17.1702 36.6498 16.603 35.7386 16.2139C34.8274 15.8249 33.8326 15.6238 32.8256 15.625H29.2778C27.1767 15.625 25.2478 16.4375 23.9389 17.875L19.3233 22.875C14.3289 28.25 7.71556 31.25 0 31.25V37.5C9.54111 37.5 17.8767 33.8438 24.1111 27.3438V34.375L10.7467 39.2187C8.43889 40.0625 6.88889 42.1875 6.88889 44.4062C6.88889 47.5 9.64444 50 13.0544 50H20.6667V48.4375C20.6667 46.3655 21.5739 44.3784 23.1888 42.9132C24.8037 41.4481 26.994 40.625 29.2778 40.625H39.6111C40.5756 40.625 41.3333 41.3125 41.3333 42.1875C41.3333 43.0625 40.5756 43.75 39.6111 43.75H29.2778C26.4189 43.75 24.1111 45.8438 24.1111 48.4375V50H48.9456C52.3556 50 55.1111 47.5 55.1111 44.4062C55.1111 42.1875 53.5611 40.0625 51.2533 39.2187L37.8889 34.375V27.3438C44.1233 33.8438 52.4589 37.5 62 37.5Z" fill="white"/>
</svg>
