<svg width="15" height="13" viewBox="0 0 15 13" fill="none" xmlns="http://www.w3.org/2000/svg">
<path d="M14.8642 4.65325H10.5187C10.444 4.65325 10.3829 4.71975 10.3829 4.80103V5.68769C10.3829 5.76896 10.444 5.83546 10.5187 5.83546H14.8642C14.9389 5.83546 15 5.76896 15 5.68769V4.80103C15 4.71975 14.9389 4.65325 14.8642 4.65325ZM12.5896 7.16545H10.5187C10.444 7.16545 10.3829 7.23195 10.3829 7.31323V8.19989C10.3829 8.28117 10.444 8.34766 10.5187 8.34766H12.5896C12.6643 8.34766 12.7254 8.28117 12.7254 8.19989V7.31323C12.7254 7.23195 12.6643 7.16545 12.5896 7.16545ZM6.92512 3H6.19012C6.08487 3 6 3.09236 6 3.20689V7.78796C6 7.85446 6.02886 7.91542 6.07808 7.95421L8.60562 9.96028C8.69049 10.0268 8.80932 10.0083 8.87043 9.91594L9.30668 9.26757V9.26573C9.36779 9.17337 9.34911 9.04406 9.26424 8.97756L7.11354 7.28552V3.20689C7.11524 3.09236 7.02867 3 6.92512 3Z" fill="#FFC016"/>
<path d="M11.851 9.19109H10.9163C10.8257 9.19109 10.74 9.23931 10.6915 9.31911C10.4861 9.65328 10.2468 9.96252 9.97183 10.2452C9.49798 10.7323 8.94651 11.1147 8.33358 11.3807C7.69801 11.6567 7.02362 11.7963 6.32822 11.7963C5.63119 11.7963 4.95681 11.6567 4.32286 11.3807C3.70993 11.1147 3.15845 10.7323 2.68461 10.2452C2.21076 9.75802 1.8388 9.19109 1.58004 8.56099C1.31158 7.90927 1.17573 7.21598 1.17573 6.49942C1.17573 5.78286 1.31158 5.09124 1.58004 4.43786C1.8388 3.80775 2.21076 3.24082 2.68461 2.75369C3.15845 2.26657 3.70993 1.88418 4.32286 1.61817C4.95681 1.34219 5.63281 1.20253 6.32822 1.20253C7.02524 1.20253 7.69963 1.34219 8.33358 1.61817C8.94651 1.88418 9.49798 2.26657 9.97183 2.75369C10.2468 3.03633 10.4861 3.34556 10.6915 3.67973C10.74 3.75954 10.8257 3.80775 10.9163 3.80775H11.851C11.9626 3.80775 12.0338 3.68805 11.9837 3.58663C10.9292 1.4303 8.79125 0.0287705 6.40423 0.000507122C2.9094 -0.0443818 0.00647995 2.89667 1.10486e-05 6.48612C-0.00645786 10.0822 2.82854 13 6.3266 13C8.74435 13 10.9179 11.5935 11.9837 9.41221C12.0338 9.3108 11.961 9.19109 11.851 9.19109Z" fill="#FFC016"/>
</svg>
