<svg width="10" height="16" viewBox="0 0 10 16" fill="none" xmlns="http://www.w3.org/2000/svg">
<path d="M8.88889 0H1.11111C0.816426 0 0.533811 0.120408 0.325437 0.334735C0.117063 0.549062 0 0.839753 0 1.14286V14.8571C0 15.1602 0.117063 15.4509 0.325437 15.6653C0.533811 15.8796 0.816426 16 1.11111 16H8.88889C9.18357 16 9.46619 15.8796 9.67456 15.6653C9.88294 15.4509 10 15.1602 10 14.8571V1.14286C10 0.839753 9.88294 0.549062 9.67456 0.334735C9.46619 0.120408 9.18357 0 8.88889 0ZM5.55556 14.8571H4.44444V13.7143H5.55556V14.8571ZM1.11111 12.5714V1.14286H8.88889V12.5714H1.11111Z" fill="#FFC016"/>
</svg>
