<svg width="20" height="20" viewBox="0 0 20 20" fill="none" xmlns="http://www.w3.org/2000/svg">
<path d="M9.99996 15.7506C9.35727 15.7506 8.72902 15.5599 8.19464 15.2029C7.66018 14.8458 7.24362 14.3382 6.99764 13.7443C6.75165 13.1505 6.68729 12.497 6.81269 11.8666C6.9381 11.2361 7.24763 10.657 7.70215 10.2025C8.15667 9.74799 8.73576 9.43846 9.3662 9.31306C9.99664 9.18766 10.6501 9.25202 11.244 9.498C11.8378 9.74399 12.3454 10.1605 12.7025 10.695C13.0596 11.2294 13.2502 11.8576 13.2502 12.5003C13.2493 13.3621 12.9065 14.1882 12.2972 14.7975C11.6878 15.4069 10.8617 15.7496 9.99996 15.7506Z" fill="black" stroke="#F2B602" stroke-width="0.5"/>
<path d="M12.6402 14.7726C12.3162 15.1572 11.912 15.4664 11.456 15.6785C11 15.8906 10.5032 16.0005 10.0002 16.0005C9.49732 16.0005 9.00047 15.8906 8.54445 15.6785C8.08844 15.4664 7.68428 15.1572 7.36024 14.7726C6.6402 15.2189 6.0457 15.8413 5.6328 16.581C5.2199 17.3208 5.00221 18.1535 5.00024 19.0006C5.00024 19.2658 5.1056 19.5202 5.29314 19.7077C5.48067 19.8953 5.73503 20.0006 6.00024 20.0006H14.0002C14.2655 20.0006 14.5198 19.8953 14.7074 19.7077C14.8949 19.5202 15.0002 19.2658 15.0002 19.0006C14.9983 18.1535 14.7806 17.3208 14.3677 16.581C13.9548 15.8413 13.3603 15.2189 12.6402 14.7726Z" fill="#FFC000"/>
<path d="M19.0002 10.0006C18.7554 10.0011 18.5191 9.91135 18.3362 9.74861L10.0002 2.33861L1.6642 9.74861C1.46582 9.92471 1.20561 10.0148 0.940805 9.99904C0.676003 9.98329 0.428305 9.86299 0.252202 9.66461C0.0760979 9.46622 -0.0139863 9.20601 0.00176679 8.94121C0.0175198 8.67641 0.13782 8.42871 0.336202 8.25261L9.3362 0.252605C9.51911 0.0898903 9.75539 0 10.0002 0C10.245 0 10.4813 0.0898903 10.6642 0.252605L19.6642 8.25261C19.816 8.38726 19.9232 8.5649 19.9716 8.76192C20.02 8.95895 20.0074 9.16604 19.9353 9.35571C19.8633 9.54538 19.7352 9.70864 19.5682 9.82383C19.4012 9.93901 19.2031 10.0007 19.0002 10.0006Z" fill="#FFC000"/>
<path opacity="0.2" d="M10.0002 2.33862L2.00024 9.44962V19.0006C2.00024 19.2658 2.1056 19.5202 2.29314 19.7077C2.48067 19.8953 2.73503 20.0006 3.00024 20.0006H6.00024C5.73503 20.0006 5.48067 19.8953 5.29314 19.7077C5.1056 19.5202 5.00024 19.2658 5.00024 19.0006C5.00221 18.1535 5.2199 17.3208 5.6328 16.5811C6.0457 15.8413 6.6402 15.219 7.36024 14.7726C6.8091 14.1437 6.5037 13.3369 6.50024 12.5006C6.50024 11.5724 6.86899 10.6821 7.52537 10.0257C8.18175 9.36937 9.07199 9.00062 10.0002 9.00062C10.9285 9.00062 11.8187 9.36937 12.4751 10.0257C13.1315 10.6821 13.5002 11.5724 13.5002 12.5006C13.4968 13.3369 13.1914 14.1437 12.6402 14.7726C13.3603 15.219 13.9548 15.8413 14.3677 16.5811C14.7806 17.3208 14.9983 18.1535 15.0002 19.0006C15.0002 19.2658 14.8949 19.5202 14.7074 19.7077C14.5198 19.8953 14.2655 20.0006 14.0002 20.0006H17.0002C17.2655 20.0006 17.5198 19.8953 17.7074 19.7077C17.8949 19.5202 18.0002 19.2658 18.0002 19.0006V9.44962L10.0002 2.33862Z" fill="black"/>
</svg>
