<svg width="20" height="20" viewBox="0 0 20 20" fill="none" xmlns="http://www.w3.org/2000/svg">
<path d="M16.1538 13.8462C15.7692 13.8462 15.3846 13.6923 15.0769 13.3846L12.7692 11.0769C12.4615 10.7692 12.3077 10.3846 12.3077 10C12.3077 9.61539 12.4615 9.23077 12.7692 8.92308L15.0769 6.61539C15.3846 6.30769 15.7692 6.15385 16.1538 6.15385C16.5385 6.15385 16.9231 6.30769 17.2308 6.61539L19.5385 8.92308C19.8462 9.23077 20 9.61539 20 10C20 10.3846 19.8462 10.7692 19.5385 11.0769L17.2308 13.3846C16.9231 13.6923 16.5385 13.8462 16.1538 13.8462ZM16.1538 7.69231L13.8462 10L16.1538 12.3077L18.4615 10L16.1538 7.69231ZM10 7.69231C9.61539 7.69231 9.23077 7.53846 8.92308 7.23077L6.61539 4.92308C6.30769 4.61538 6.15385 4.23077 6.15385 3.84615C6.15385 3.46154 6.30769 3.07692 6.61539 2.76923L8.92308 0.461538C9.23077 0.153846 9.61539 0 10 0C10.3846 0 10.7692 0.153846 11.0769 0.461538L13.3846 2.76923C13.6923 3.07692 13.8462 3.46154 13.8462 3.84615C13.8462 4.23077 13.6923 4.61538 13.3846 4.92308L11.0769 7.23077C10.7692 7.53846 10.3846 7.69231 10 7.69231ZM10 1.53846L7.69231 3.84615L10 6.15385L12.3077 3.84615L10 1.53846ZM10 20C9.61539 20 9.23077 19.8462 8.92308 19.5385L6.61539 17.2308C6.30769 16.9231 6.15385 16.5385 6.15385 16.1538C6.15385 15.7692 6.30769 15.3846 6.61539 15.0769L8.92308 12.7692C9.23077 12.4615 9.61539 12.3077 10 12.3077C10.3846 12.3077 10.7692 12.4615 11.0769 12.7692L13.3846 15.0769C13.6923 15.3846 13.8462 15.7692 13.8462 16.1538C13.8462 16.5385 13.6923 16.9231 13.3846 17.2308L11.0769 19.5385C10.7692 19.8462 10.3846 20 10 20ZM10 13.8462L7.69231 16.1538L10 18.4615L12.3077 16.1538L10 13.8462ZM3.84615 13.8462C3.46154 13.8462 3.07692 13.6923 2.76923 13.3846L0.461538 11.0769C0.153846 10.7692 0 10.3846 0 10C0 9.61539 0.153846 9.23077 0.461538 8.92308L2.76923 6.61539C3.07692 6.30769 3.46154 6.15385 3.84615 6.15385C4.23077 6.15385 4.61538 6.30769 4.92308 6.61539L7.23077 8.92308C7.53846 9.23077 7.69231 9.61539 7.69231 10C7.69231 10.3846 7.53846 10.7692 7.23077 11.0769L4.92308 13.3846C4.61538 13.6923 4.23077 13.8462 3.84615 13.8462ZM3.84615 7.69231L1.53846 10L3.84615 12.3077L6.15385 10L3.84615 7.69231Z" fill="#FFC000"/>
</svg>
