<svg width="21" height="22" viewBox="0 0 21 22" fill="none" xmlns="http://www.w3.org/2000/svg">
<path d="M9.8262 21.8742C10.2402 21.8647 10.6376 21.709 10.9479 21.4348C11.2583 21.1605 11.4616 20.7853 11.522 20.3756H8.0647C8.12679 20.7965 8.33965 21.1805 8.66368 21.4561C8.9877 21.7318 9.40083 21.8804 9.8262 21.8742Z" fill="#FFC016"/>
<path d="M19.5869 17.832L19.3634 17.6348C18.7294 17.0699 18.1745 16.4221 17.7136 15.709C17.2103 14.7247 16.9086 13.6499 16.8263 12.5474V9.30049C16.8236 8.90609 16.7885 8.51259 16.7212 8.12397C15.6078 7.89513 14.6077 7.28858 13.8903 6.40701C13.1728 5.52544 12.782 4.42303 12.7841 3.2864V2.87231C12.0978 2.5346 11.3605 2.31252 10.6019 2.21504V1.38687C10.6019 1.15415 10.5094 0.93096 10.3449 0.766403C10.1803 0.601847 9.95715 0.509399 9.72443 0.509399C9.49171 0.509399 9.26852 0.601847 9.10397 0.766403C8.93941 0.93096 8.84696 1.15415 8.84696 1.38687V2.2479C7.14837 2.48751 5.59381 3.33355 4.47029 4.62983C3.34677 5.92611 2.73015 7.58509 2.73428 9.30049V12.5474C2.65196 13.6499 2.35028 14.7247 1.84695 15.709C1.39401 16.4204 0.848017 17.068 0.223475 17.6348L0 17.832V19.6855H19.5869V17.832Z" fill="#FFC016"/>
<path d="M17.7136 6.57278C19.5287 6.57278 21 5.10141 21 3.28639C21 1.47137 19.5287 0 17.7136 0C15.8986 0 14.4272 1.47137 14.4272 3.28639C14.4272 5.10141 15.8986 6.57278 17.7136 6.57278Z" fill="#FFC016"/>
</svg>
