<svg width="18" height="21" viewBox="0 0 18 21" fill="none" xmlns="http://www.w3.org/2000/svg">
<path d="M15.0007 7H17.0007C17.2659 7 17.5203 7.10536 17.7078 7.29289C17.8954 7.48043 18.0007 7.73478 18.0007 8V20C18.0007 20.2652 17.8954 20.5196 17.7078 20.7071C17.5203 20.8946 17.2659 21 17.0007 21H1.00073C0.735516 21 0.481162 20.8946 0.293626 20.7071C0.106089 20.5196 0.000732422 20.2652 0.000732422 20V8C0.000732422 7.73478 0.106089 7.48043 0.293626 7.29289C0.481162 7.10536 0.735516 7 1.00073 7H3.00073V6C3.00073 4.4087 3.63287 2.88258 4.75809 1.75736C5.88331 0.632141 7.40943 0 9.00073 0C10.592 0 12.1182 0.632141 13.2434 1.75736C14.3686 2.88258 15.0007 4.4087 15.0007 6V7ZM13.0007 7V6C13.0007 4.93913 12.5793 3.92172 11.8292 3.17157C11.079 2.42143 10.0616 2 9.00073 2C7.93987 2 6.92245 2.42143 6.17231 3.17157C5.42216 3.92172 5.00073 4.93913 5.00073 6V7H13.0007ZM8.00073 13V15H10.0007V13H8.00073ZM4.00073 13V15H6.00073V13H4.00073ZM12.0007 13V15H14.0007V13H12.0007Z" fill="#FFC016"/>
</svg>
