<svg width="18" height="20" viewBox="0 0 18 20" fill="none" xmlns="http://www.w3.org/2000/svg">
<path d="M18 13.4735V14.8459C18 15.6691 17.619 16.373 17.09 16.9262C16.567 17.4743 15.857 17.9214 15.058 18.2753C13.456 18.9833 11.314 19.3969 9 19.3969C6.686 19.3969 4.544 18.9843 2.942 18.2753C2.143 17.9214 1.433 17.4743 0.91 16.9262C0.425 16.4205 0.0649999 15.7854 0.0079999 15.0491L0 14.8459V13.4735C0.465 13.7405 0.962 13.9771 1.494 14.1763C3.524 14.9359 6.179 15.3596 9 15.3596C11.821 15.3596 14.476 14.9359 16.506 14.1763C16.905 14.0267 17.284 13.8568 17.645 13.6676L18 13.4735ZM0 7.91108C0.465 8.17808 0.962 8.41473 1.494 8.61397C3.524 9.37349 6.179 9.79724 9 9.79724C11.821 9.79724 14.476 9.37349 16.506 8.61397C17.0221 8.4213 17.5218 8.18622 18 7.91108V11.0513C17.336 11.5697 16.5983 11.9836 15.812 12.2791C14.057 12.9364 11.648 13.3379 9 13.3379C6.353 13.3379 3.944 12.9364 2.188 12.2791C1.40169 11.9836 0.664031 11.5697 0 11.0513V7.91108ZM9 0.181396C11.314 0.181396 13.456 0.594024 15.058 1.30298C15.857 1.65694 16.567 2.10396 17.09 2.65211C17.575 3.15778 17.935 3.7929 17.992 4.52916L18 4.73244V5.48892C17.336 6.00731 16.5983 6.42124 15.812 6.71669C14.057 7.37406 11.648 7.77556 9 7.77556C6.353 7.77556 3.944 7.37406 2.188 6.71669C1.51184 6.46304 0.871402 6.121 0.283 5.69928L0 5.48892V4.73244C0 3.9092 0.381 3.20531 0.91 2.65211C1.433 2.10396 2.143 1.65694 2.942 1.30298C4.544 0.595036 6.686 0.181396 9 0.181396Z" fill="#FFC000"/>
</svg>
