<svg width="17" height="17" viewBox="0 0 17 17" fill="none" xmlns="http://www.w3.org/2000/svg">
<path fill-rule="evenodd" clip-rule="evenodd" d="M4.59392 13.0534C7.50305 12.6284 9.50607 12.665 12.419 13.0683C12.63 13.0989 12.8227 13.2048 12.9617 13.3664C13.1007 13.528 13.1765 13.7345 13.1751 13.9476C13.1751 14.1516 13.105 14.3497 12.9783 14.5044C12.7576 14.7741 12.5314 15.0394 12.3 15.3H13.4224C13.493 15.2158 13.564 15.13 13.6358 15.0429C13.8879 14.7337 14.0254 14.347 14.0251 13.9481C14.0251 13.0874 13.3969 12.3458 12.5355 12.2268C9.55367 11.8141 7.46947 11.7746 4.4711 12.2128C3.6007 12.3399 2.9751 13.093 2.9751 13.9595C2.9751 14.3442 3.10047 14.7245 3.33805 15.0327C3.40817 15.1236 3.47745 15.2129 3.5463 15.3004H4.64152C4.42623 15.0427 4.21623 14.7805 4.01167 14.5142C3.89011 14.3547 3.82453 14.1596 3.8251 13.9591C3.8251 13.5014 4.15405 13.1176 4.59392 13.0534ZM8.5001 8.925C8.83497 8.925 9.16656 8.85904 9.47594 8.73089C9.78532 8.60274 10.0664 8.41491 10.3032 8.17812C10.54 7.94133 10.7278 7.66022 10.856 7.35084C10.9841 7.04146 11.0501 6.70987 11.0501 6.375C11.0501 6.04013 10.9841 5.70854 10.856 5.39916C10.7278 5.08978 10.54 4.80867 10.3032 4.57188C10.0664 4.33509 9.78532 4.14726 9.47594 4.01911C9.16656 3.89096 8.83497 3.825 8.5001 3.825C7.8238 3.825 7.17519 4.09366 6.69697 4.57188C6.21876 5.05009 5.9501 5.6987 5.9501 6.375C5.9501 7.0513 6.21876 7.6999 6.69697 8.17812C7.17519 8.65634 7.8238 8.925 8.5001 8.925ZM8.5001 9.775C9.40183 9.775 10.2666 9.41679 10.9043 8.77916C11.5419 8.14154 11.9001 7.27673 11.9001 6.375C11.9001 5.47326 11.5419 4.60846 10.9043 3.97084C10.2666 3.33321 9.40183 2.975 8.5001 2.975C7.59836 2.975 6.73356 3.33321 6.09593 3.97084C5.45831 4.60846 5.1001 5.47326 5.1001 6.375C5.1001 7.27673 5.45831 8.14154 6.09593 8.77916C6.73356 9.41679 7.59836 9.775 8.5001 9.775Z" fill="#FFC016"/>
<path fill-rule="evenodd" clip-rule="evenodd" d="M8.5 16.15C12.7249 16.15 16.15 12.7249 16.15 8.5C16.15 4.27507 12.7249 0.85 8.5 0.85C4.27507 0.85 0.85 4.27507 0.85 8.5C0.85 12.7249 4.27507 16.15 8.5 16.15ZM8.5 17C13.1946 17 17 13.1946 17 8.5C17 3.80545 13.1946 0 8.5 0C3.80545 0 0 3.80545 0 8.5C0 13.1946 3.80545 17 8.5 17Z" fill="#FFC016"/>
</svg>
