<svg width="16" height="22" viewBox="0 0 16 22" fill="none" xmlns="http://www.w3.org/2000/svg">
<path d="M13.0909 8.07053C13.0909 9.08535 12.7923 10.0774 12.2329 10.9212C11.6735 11.7649 10.8784 12.4226 9.9482 12.811C9.01796 13.1993 7.99435 13.3009 7.00681 13.1029C6.01927 12.905 5.11216 12.4163 4.40018 11.6987C3.68821 10.9811 3.20334 10.0669 3.00691 9.07154C2.81048 8.07622 2.91129 7.04455 3.29661 6.10698C3.68193 5.16942 4.33444 4.36806 5.17164 3.80426C6.00884 3.24046 6.99311 2.93953 8 2.93953C9.35019 2.93953 10.6451 3.48012 11.5998 4.44237C12.5545 5.40462 13.0909 6.70971 13.0909 8.07053ZM16 8.07053C16.0002 9.25823 15.7394 10.4312 15.2364 11.5053C14.7334 12.5794 14.0007 13.5279 13.0909 14.2827V21.2645C13.0909 21.4589 13.0143 21.6454 12.8779 21.7828C12.7415 21.9203 12.5565 21.9975 12.3636 21.9975C12.2508 21.9951 12.1396 21.9702 12.0364 21.9242L8 19.881L3.96363 21.9242C3.85218 21.9797 3.72849 22.0055 3.60435 21.999C3.48021 21.9926 3.35978 21.9542 3.25454 21.8876C3.14846 21.8227 3.06087 21.7311 3.00033 21.6219C2.93978 21.5128 2.90835 21.3896 2.90909 21.2645V14.2827C1.86903 13.4179 1.0627 12.3023 0.564993 11.0393C0.0672915 9.77638 -0.105632 8.40715 0.0622875 7.05882C0.230207 5.71048 0.733521 4.4268 1.52547 3.32701C2.31743 2.22722 3.37233 1.347 4.59217 0.768137C5.81202 0.189269 7.15724 -0.0694727 8.50287 0.0159468C9.8485 0.101366 11.1509 0.528177 12.289 1.25673C13.4272 1.98528 14.3642 2.99194 15.0129 4.18318C15.6617 5.37443 16.0013 6.71162 16 8.07053ZM14.5455 8.07053C14.5455 6.76577 14.1616 5.49031 13.4423 4.40544C12.7231 3.32057 11.7009 2.47501 10.5048 1.9757C9.30881 1.47639 7.99274 1.34575 6.72304 1.60029C5.45335 1.85484 4.28706 2.48314 3.37166 3.40575C2.45626 4.32836 1.83287 5.50383 1.58031 6.78352C1.32776 8.06321 1.45738 9.38965 1.95279 10.5951C2.4482 11.8005 3.28714 12.8308 4.36354 13.5557C5.43993 14.2806 6.70543 14.6675 8 14.6675C9.73522 14.6651 11.3987 13.9693 12.6257 12.7326C13.8527 11.496 14.543 9.81942 14.5455 8.07053Z" fill="#FFC016"/>
</svg>
