<svg width="28" height="29" viewBox="0 0 28 29" fill="none" xmlns="http://www.w3.org/2000/svg">
<path d="M27.1343 14.0167L19.4824 18.995L23.227 29L13.5129 22.8133L3.74453 29L-5.72205e-06 0L27.1343 14.0167Z" fill="#F5A300"/>
<path d="M9.91594 18.8909L4.0199 15.1091H11.3223L13.5942 9L15.812 15.1091H23.1144L17.2184 18.8909L19.4362 25L13.5942 21.2182L7.69816 25L9.91594 18.8909Z" fill="#262626"/>
<path d="M9.69087 13H7.80654L3.71933e-05 0L10.3369 11.178L9.69087 13ZM3.71933e-05 0L12.0597 6.40152L11.0907 9.15909L3.71933e-05 0ZM1.66901 13L3.71933e-05 0L5.27616 13H1.66901Z" fill="#FFCE31"/>
</svg>
