<svg width="24" height="24" viewBox="0 0 24 24" fill="none" xmlns="http://www.w3.org/2000/svg">
<path d="M21.207 11.293L18.207 8.293C18.1141 8.20016 18.0038 8.12652 17.8824 8.0763C17.7611 8.02608 17.631 8.00025 17.4996 8.0003C17.3683 8.00034 17.2382 8.02626 17.1169 8.07657C16.9956 8.12688 16.8853 8.20059 16.7925 8.2935C16.6997 8.38641 16.626 8.4967 16.5758 8.61807C16.5256 8.73943 16.4998 8.86951 16.4998 9.00085C16.4998 9.1322 16.5258 9.26226 16.5761 9.38359C16.6264 9.50492 16.7001 9.61516 16.793 9.708L18.086 11H12.5C12.2348 11 11.9804 11.1054 11.7929 11.2929C11.6054 11.4804 11.5 11.7348 11.5 12C11.5 12.2652 11.6054 12.5196 11.7929 12.7071C11.9804 12.8946 12.2348 13 12.5 13H18.086L16.793 14.293C16.6975 14.3852 16.6213 14.4956 16.5689 14.6176C16.5165 14.7396 16.4889 14.8708 16.4877 15.0036C16.4866 15.1364 16.5119 15.2681 16.5622 15.391C16.6125 15.5139 16.6867 15.6255 16.7806 15.7194C16.8745 15.8133 16.9862 15.8875 17.109 15.9378C17.2319 15.9881 17.3636 16.0134 17.4964 16.0123C17.6292 16.0111 17.7604 15.9835 17.8824 15.9311C18.0044 15.8787 18.1148 15.8025 18.207 15.707L21.207 12.707C21.3 12.6141 21.3737 12.5038 21.4241 12.3824C21.4744 12.261 21.5003 12.1309 21.5003 11.9995C21.5003 11.8681 21.4744 11.738 21.4241 11.6166C21.3737 11.4952 21.3 11.3849 21.207 11.292V11.293Z" fill="#FFC000"/>
<path opacity="0.5" d="M12.5 13C12.2348 13 11.9804 12.8946 11.7929 12.7071C11.6054 12.5196 11.5 12.2652 11.5 12C11.5 11.7348 11.6054 11.4804 11.7929 11.2929C11.9804 11.1054 12.2348 11 12.5 11H16.5V5C16.4992 4.20459 16.1829 3.44199 15.6204 2.87956C15.058 2.31712 14.2954 2.00079 13.5 2H5.5C4.70459 2.00079 3.94199 2.31712 3.37956 2.87956C2.81712 3.44199 2.50079 4.20459 2.5 5V19C2.50079 19.7954 2.81712 20.558 3.37956 21.1204C3.94199 21.6829 4.70459 21.9992 5.5 22H13.5C14.2954 21.9992 15.058 21.6829 15.6204 21.1204C16.1829 20.558 16.4992 19.7954 16.5 19V13H12.5Z" fill="#B0B0B0"/>
</svg>
