<svg width="23" height="21" viewBox="0 0 23 21" fill="none" xmlns="http://www.w3.org/2000/svg">
<path d="M14.0156 20.0502H4.00483V18.0459H14.0156V20.0502ZM21.0232 2.00432L16.2831 7.97218L16.0628 8.24277L10.4268 15.4483C10.2407 15.6345 10.0199 15.7822 9.77684 15.883C9.5338 15.9838 9.2733 16.0357 9.01022 16.0357C8.74715 16.0357 8.48665 15.9838 8.24361 15.883C8.00056 15.7822 7.77972 15.6345 7.5937 15.4483C7.40768 15.2621 7.26012 15.041 7.15944 14.7977C7.05877 14.5544 7.00695 14.2936 7.00695 14.0302C7.00695 13.7669 7.05877 13.5061 7.15944 13.2628C7.26012 13.0195 7.40768 12.7984 7.5937 12.6122L21.0232 2.00432ZM1.64729 5.24531C0.201266 7.56384 -0.318818 10.3428 0.190721 13.0281H1.00159V12.0259C0.990686 10.0527 1.58085 8.12293 2.69342 6.494L1.64729 5.24531ZM11.0124 2.69836e-07C9.48142 -0.000339464 7.96733 0.320128 6.56753 0.940789C5.16772 1.56145 3.91318 2.46856 2.88462 3.60377L4.02986 4.97071C5.38885 3.71975 7.16409 3.0196 9.01022 3.00648C10.8663 3.01943 12.6505 3.72646 14.0126 4.98875L17.5664 2.1807C15.674 0.764904 13.3749 -7.75714e-05 11.0124 2.69836e-07ZM17.8497 9.21987L17.6165 9.50749L16.8877 10.4395C16.9729 10.964 17.0167 11.4945 17.0189 12.0259V13.0281H21.834C22.3091 10.5201 21.89 7.9247 20.6498 5.69427L17.8497 9.21987Z" fill="#FFC000"/>
</svg>
