<svg width="53" height="41" viewBox="0 0 53 41" fill="none" xmlns="http://www.w3.org/2000/svg">
<path d="M6.60339 25.5572C5.16067 25.3006 2.77054 24.9173 1.86644 22.9021C0.96234 20.887 1.10814 16.7639 1.82867 13.2673C2.88958 8.11348 5.33031 4.26321 8.69884 2.42591C10.6835 1.34419 12.8523 1.04268 14.9691 1.55977C16.7825 2.00067 19.1783 3.46475 20.299 7.93872C21.0006 10.7418 21.0268 14.1766 20.3713 17.3615C19.5801 21.206 18.6775 25.2902 15.9899 26.0004C14.4736 26.4017 13.4989 26.3974 11.275 26.183C9.44659 26.006 8.04756 25.8131 6.60339 25.5572ZM2.94144 27.9129L15.4302 29.4638C16.4855 29.5946 17.0847 30.334 16.8813 31.9113C16.2129 37.0885 12.2576 42.2766 6.87174 40.5585C1.77144 38.9315 0.413742 32.6097 0.955823 29.6173C1.19986 28.2598 1.79714 27.77 2.94144 27.9129ZM32.9714 22.7058C31.0899 21.6127 30.3285 21.0611 29.4257 19.888C27.8248 17.8098 29.953 14.1166 32.0019 10.6732C33.6991 7.82067 36.102 5.15646 38.5902 3.37523C42.5623 0.525871 45.4433 0.745097 47.1634 1.4314C49.168 2.23012 50.65 3.6941 51.446 5.66284C52.7981 9.00603 52.03 13.3899 49.2815 18.0053C47.4177 21.1373 44.6822 24.4201 42.5677 25.4864C40.4531 26.5527 38.3435 25.4865 37.0377 24.8663C35.7319 24.2461 34.5175 23.6041 32.9714 22.7058ZM38.2622 28.7808L27.46 22.9019C26.5475 22.4049 25.5682 22.6407 24.6332 23.9847C21.566 28.3967 21.0501 34.682 26.436 36.4001C31.5363 38.0271 36.9761 33.8737 38.6283 31.2354C39.3782 30.0392 39.2525 29.3188 38.2622 28.7808Z" fill="white"/>
</svg>
