<svg width="18" height="18" viewBox="0 0 18 18" fill="none" xmlns="http://www.w3.org/2000/svg">
<path d="M9 0C4.2 0 0 3.86 0 9C0 11.12 0.74 13.07 1.97 14.61L0 16.59L1.41 18L3.38 16.03C4.97597 17.3045 6.95755 17.9992 9 18C11.3 18 13.61 17.12 15.36 15.36C16.1982 14.5267 16.863 13.5357 17.3162 12.4441C17.7693 11.3525 18.0017 10.1819 18 9V0H9ZM12.83 9.26L7.67 13.89C7.51 14.04 7.26 14.03 7.11 13.88C7.04168 13.8128 6.99999 13.7231 6.99264 13.6275C6.98528 13.5319 7.01276 13.4369 7.07 13.36L9.51 10.03L5.46 9.63C5.36105 9.62071 5.26691 9.58294 5.18899 9.52125C5.11107 9.45956 5.0527 9.37661 5.02096 9.28243C4.98921 9.18825 4.98545 9.08689 5.01013 8.99062C5.0348 8.89435 5.08686 8.80729 5.16 8.74L10.32 4.11C10.48 3.96 10.73 3.97 10.88 4.12C11.02 4.26 11.04 4.48 10.92 4.64L8.48 7.97L12.53 8.37C12.98 8.41 13.16 8.96 12.83 9.26Z" fill="#FFC000"/>
</svg>
