<svg width="21" height="21" viewBox="0 0 21 21" fill="none" xmlns="http://www.w3.org/2000/svg">
<path d="M4.98474 2.10115H5.58051C5.98561 2.10115 6.27152 1.95819 6.48612 1.62458C6.70056 1.29096 6.91499 0.957319 7.12959 0.647477C7.58242 -0.019784 8.29734 -0.186684 8.98839 0.218608C9.34579 0.409276 9.70336 0.62371 10.0607 0.814377C10.3467 0.981273 10.6327 0.957336 10.9424 0.814377C11.2998 0.62371 11.6334 0.409276 11.991 0.218608C12.706 -0.186493 13.397 -0.019767 13.8498 0.647477C14.0643 0.981099 14.2787 1.29095 14.4933 1.62458C14.7077 1.9582 14.9699 2.12511 15.375 2.10115C15.7801 2.07738 16.1852 2.07738 16.5903 2.05344C17.353 2.05344 17.9248 2.60151 17.9725 3.36418C17.9963 3.74551 18.044 4.15059 18.0677 4.53193C18.1155 4.91326 18.2822 5.1754 18.6397 5.31834C18.9971 5.48524 19.3547 5.65196 19.7121 5.84262C20.4031 6.20001 20.6415 6.89121 20.3555 7.58222C20.2126 7.96355 20.0457 8.34489 19.879 8.72605C19.736 9.05967 19.7837 9.34561 19.9742 9.63166C20.2126 9.94151 20.4508 10.2751 20.6892 10.6088C21.1658 11.2522 21.0943 11.9909 20.4747 12.5153C20.1888 12.7536 19.9028 13.0158 19.6168 13.2302C19.2594 13.4924 19.1403 13.826 19.2355 14.2549C19.307 14.66 19.3785 15.0651 19.4024 15.4702C19.4739 16.2089 19.045 16.8047 18.3061 16.9477C17.9487 17.0191 17.5911 17.1146 17.2338 17.186C16.8287 17.2575 16.5665 17.472 16.4474 17.877C16.3282 18.2584 16.1852 18.6397 16.066 18.9971C15.8276 19.6881 15.1843 20.0217 14.4694 19.855C14.0643 19.7597 13.6829 19.6406 13.3016 19.5214C12.9203 19.4022 12.5866 19.4737 12.3007 19.7835C12.0148 20.0694 11.7287 20.3316 11.4428 20.5937C10.8708 21.118 10.156 21.118 9.58402 20.5937C9.2981 20.3316 8.98825 20.0457 8.70232 19.7835C8.44018 19.5214 8.13034 19.4261 7.74918 19.5451C7.34408 19.6643 6.96276 19.7835 6.55764 19.8788C5.81893 20.0694 5.17546 19.6881 4.93723 18.9732C4.81805 18.5918 4.67509 18.2344 4.5559 17.8531C4.43672 17.4718 4.19851 17.2573 3.81719 17.1858C3.43586 17.1144 3.05453 17.0189 2.67336 16.9475C1.9584 16.8045 1.52953 16.2088 1.60102 15.4938C1.64873 15.0887 1.72021 14.6836 1.76792 14.2546C1.8394 13.8495 1.74415 13.5158 1.41052 13.2537C1.10067 13.0153 0.814755 12.7531 0.504913 12.491C-0.0670675 11.9905 -0.162348 11.2518 0.266537 10.6085C0.504913 10.2748 0.74311 9.96498 0.981502 9.65531C1.19594 9.36939 1.24365 9.05954 1.10069 8.70216C0.933794 8.32083 0.790839 7.91575 0.624118 7.53441C0.361971 6.89094 0.600347 6.19993 1.1961 5.84234C1.57743 5.62791 1.95877 5.46101 2.36385 5.27036C2.72124 5.10347 2.91191 4.8415 2.93583 4.46016C2.98354 4.05506 3.00731 3.67375 3.03108 3.26862C3.07879 2.55366 3.65063 2.0056 4.36556 2.0056H5.03282C4.98478 2.05347 4.98478 2.07724 4.98478 2.10118L4.98474 2.10115ZM17.3052 10.4896C17.3052 6.65282 14.1835 3.57866 10.3467 3.62632C6.5814 3.69796 3.5549 6.81977 3.60256 10.5372C3.65027 14.374 6.77205 17.4243 10.585 17.3528C14.3502 17.2813 17.3052 14.1833 17.3052 10.4896Z" fill="#FFC000"/>
<path d="M10.4897 4.48438C13.7783 4.50815 16.4235 7.15338 16.4473 10.4182C16.4711 13.8974 13.7783 16.5666 10.299 16.4951C7.05802 16.4474 4.43664 13.7546 4.46047 10.4659C4.46047 7.15342 7.15339 4.48438 10.4897 4.48438ZM9.58404 11.2046C9.05976 10.7281 8.5594 10.2752 8.03513 9.84621C7.46315 9.34568 7.34412 9.36963 6.8198 9.89391C6.55765 10.1561 6.50995 10.3467 6.72455 10.6566C6.9867 11.0617 7.29653 11.443 7.60625 11.8243C8.17823 12.5393 8.72629 13.278 9.29831 13.993C9.48898 14.2313 9.75114 14.2313 9.94179 13.993C9.98949 13.9215 10.037 13.8738 10.0847 13.8023C11.4192 11.9435 12.7537 10.0848 14.0882 8.22591C14.1359 8.15443 14.2074 8.05902 14.2551 7.96377C14.3743 7.72539 14.3504 7.55866 14.1599 7.39179C14.0169 7.2726 13.874 7.15341 13.707 7.05816C13.5164 6.9152 13.3497 6.93898 13.2065 7.10587C12.9921 7.34425 12.7537 7.6064 12.5393 7.86854C11.5144 8.9645 10.5611 10.0608 9.58403 11.2046L9.58404 11.2046Z" fill="#FFC000"/>
</svg>
