<svg width="20" height="20" viewBox="0 0 20 20" fill="none" xmlns="http://www.w3.org/2000/svg">
<path d="M16.7742 7.46267C16.0372 7.46589 15.3092 7.31265 14.6462 7.01472C13.9832 6.7168 13.4029 6.28213 12.9499 5.74414C12.4969 5.20616 12.1833 4.5792 12.0331 3.91148C11.883 3.24375 11.9003 2.55306 12.0839 1.89252C11.1547 1.4773 10.2521 1.01285 9.38065 0.501478L9.03226 0.298492L8.68387 0.507448C7.43107 1.23789 6.11972 1.87856 4.76129 2.42387C3.37825 2.99488 1.94784 3.46205 0.483871 3.82088L0 3.93431V8.91342C0 16.9074 8.72903 19.8985 8.8129 19.9283L9.03226 20L9.25161 19.9283C9.34194 19.9283 18.0645 16.9134 18.0645 8.91342V7.29551C17.6445 7.40488 17.2105 7.46111 16.7742 7.46267Z" fill="#FFC000"/>
<path d="M16.7741 5.97015C18.5557 5.97015 20 4.63369 20 2.98507C20 1.33646 18.5557 0 16.7741 0C14.9926 0 13.5483 1.33646 13.5483 2.98507C13.5483 4.63369 14.9926 5.97015 16.7741 5.97015Z" fill="#FFC000"/>
</svg>
