<svg width="16" height="20" viewBox="0 0 16 20" fill="none" xmlns="http://www.w3.org/2000/svg">
<path d="M7.3 0.126277L1.3 2.37628C0.52 2.67628 0 3.41628 0 4.25628V8.96628C0 14.0163 3.41 18.7263 8 19.8763C12.59 18.7263 16 14.0163 16 8.96628V4.25628C15.9993 3.84934 15.8745 3.4523 15.6422 3.11816C15.4099 2.78403 15.0812 2.52871 14.7 2.38628L8.7 0.136277C8.25 -0.0437232 7.75 -0.0437232 7.3 0.126277ZM6.23 12.6963L4.11 10.5763C4.01742 10.4837 3.94398 10.3738 3.89387 10.2528C3.84377 10.1319 3.81798 10.0022 3.81798 9.87128C3.81798 9.74035 3.84377 9.6107 3.89387 9.48973C3.94398 9.36877 4.01742 9.25886 4.11 9.16628C4.20258 9.0737 4.31249 9.00025 4.43346 8.95015C4.55442 8.90004 4.68407 8.87426 4.815 8.87426C4.94593 8.87426 5.07558 8.90004 5.19654 8.95015C5.31751 9.00025 5.42742 9.0737 5.52 9.16628L6.93 10.5763L10.47 7.03628C10.5626 6.9437 10.6725 6.87025 10.7935 6.82015C10.9144 6.77004 11.0441 6.74426 11.175 6.74426C11.3059 6.74426 11.4356 6.77004 11.5565 6.82015C11.6775 6.87025 11.7874 6.9437 11.88 7.03628C11.9726 7.12886 12.046 7.23877 12.0961 7.35973C12.1462 7.4807 12.172 7.61035 12.172 7.74128C12.172 7.87221 12.1462 8.00186 12.0961 8.12282C12.046 8.24378 11.9726 8.35369 11.88 8.44628L7.64 12.6863C7.26 13.0863 6.62 13.0863 6.23 12.6963Z" fill="#FFC000"/>
</svg>
