<svg width="22" height="22" viewBox="0 0 22 22" fill="none" xmlns="http://www.w3.org/2000/svg">
<path d="M5.22211 2.20258H5.84625C6.27064 2.20258 6.57016 2.05272 6.79499 1.703C7.01964 1.35327 7.24428 1.00353 7.4691 0.678732C7.94349 -0.020739 8.69246 -0.195696 9.41641 0.229161C9.79082 0.429032 10.1654 0.653817 10.5398 0.853688C10.8393 1.02864 11.139 1.00355 11.4635 0.853688C11.8379 0.653817 12.1874 0.429032 12.562 0.229161C13.311 -0.195495 14.0349 -0.0207212 14.5093 0.678732C14.734 1.02846 14.9586 1.35327 15.1835 1.703C15.4081 2.05273 15.6827 2.22769 16.1071 2.20258C16.5315 2.17766 16.9559 2.17766 17.3803 2.15257C18.1793 2.15257 18.7784 2.72709 18.8283 3.52657C18.8532 3.92631 18.9032 4.35095 18.9281 4.75069C18.9781 5.15043 19.1528 5.42522 19.5273 5.57507C19.9017 5.75002 20.2763 5.92479 20.6507 6.12465C21.3747 6.4993 21.6244 7.22386 21.3249 7.94823C21.1751 8.34796 21.0002 8.74771 20.8256 9.14727C20.6758 9.497 20.7258 9.79674 20.9254 10.0966C21.1751 10.4214 21.4246 10.7711 21.6744 11.1209C22.1737 11.7954 22.0988 12.5698 21.4497 13.1194C21.1502 13.3693 20.8505 13.6441 20.551 13.8689C20.1766 14.1437 20.0517 14.4934 20.1515 14.943C20.2264 15.3676 20.3013 15.7923 20.3263 16.217C20.4012 16.9913 19.9519 17.6159 19.1778 17.7658C18.8034 17.8407 18.4288 17.9407 18.0544 18.0156C17.63 18.0906 17.3554 18.3154 17.2306 18.74C17.1057 19.1397 16.9559 19.5395 16.8311 19.9141C16.5813 20.6385 15.9074 20.9882 15.1584 20.8134C14.734 20.7136 14.3345 20.5886 13.935 20.4637C13.5355 20.3388 13.186 20.4137 12.8865 20.7385C12.5869 21.0382 12.2873 21.313 11.9877 21.5878C11.3885 22.1374 10.6397 22.1374 10.0404 21.5878C9.74086 21.313 9.41626 21.0133 9.11672 20.7385C8.84209 20.4637 8.5175 20.3639 8.11819 20.4886C7.69379 20.6136 7.29432 20.7385 6.86991 20.8383C6.09602 21.0382 5.42191 20.6385 5.17234 19.889C5.04748 19.4893 4.89771 19.1146 4.77285 18.7149C4.64799 18.3152 4.39844 18.0904 3.99897 18.0154C3.59948 17.9405 3.19998 17.8405 2.80066 17.7656C2.05165 17.6157 1.60236 16.9912 1.67726 16.2417C1.72724 15.8171 1.80212 15.3924 1.8521 14.9426C1.92699 14.518 1.8272 14.1683 1.47769 13.8934C1.15309 13.6436 0.853553 13.3687 0.528956 13.094C-0.0702612 12.5693 -0.170079 11.7949 0.27923 11.1205C0.528956 10.7708 0.778496 10.446 1.02824 10.1214C1.25289 9.82166 1.30287 9.49686 1.1531 9.12223C0.97826 8.72249 0.828498 8.29785 0.653838 7.89811C0.379208 7.22358 0.628935 6.49922 1.25306 6.12436C1.65254 5.89958 2.05204 5.72463 2.47641 5.52477C2.85082 5.34982 3.05057 5.0752 3.07563 4.67546C3.12561 4.2508 3.15051 3.85109 3.17542 3.42641C3.2254 2.67693 3.82447 2.10241 4.57344 2.10241H5.27248C5.22215 2.15259 5.22215 2.17751 5.22215 2.20261L5.22211 2.20258ZM18.1293 10.9959C18.1293 6.97397 14.8589 3.75141 10.8394 3.80137C6.8948 3.87647 3.72418 7.14897 3.77411 11.0459C3.82409 15.0678 7.09453 18.2654 11.089 18.1905C15.0336 18.1155 18.1293 14.868 18.1293 10.9959Z" fill="#FFC000"/>
<path d="M10.9891 4.70068C14.4344 4.7256 17.2056 7.49852 17.2305 10.921C17.2554 14.5681 14.4344 17.3661 10.7894 17.2912C7.39411 17.2411 4.6479 14.4184 4.67287 10.9709C4.67287 7.49857 7.49402 4.70068 10.9891 4.70068ZM10.0404 11.7454C9.49117 11.2458 8.96699 10.7711 8.41774 10.3213C7.81853 9.79665 7.69383 9.82176 7.14454 10.3714C6.86992 10.6462 6.81994 10.846 7.04476 11.1708C7.31939 11.5955 7.64398 11.9952 7.96844 12.395C8.56766 13.1444 9.14182 13.9188 9.74108 14.6683C9.94083 14.9182 10.2155 14.9182 10.4152 14.6683C10.4652 14.5933 10.515 14.5433 10.565 14.4684C11.963 12.5199 13.3611 10.5714 14.7591 8.62283C14.8091 8.5479 14.8839 8.44788 14.9339 8.34803C15.0588 8.09815 15.0337 7.92337 14.8341 7.74844C14.6844 7.6235 14.5346 7.49856 14.3598 7.39871C14.16 7.24885 13.9853 7.27377 13.8354 7.44872C13.6107 7.69861 13.361 7.97342 13.1363 8.24821C12.0627 9.39707 11.064 10.5463 10.0404 11.7453L10.0404 11.7454Z" fill="#FFC000"/>
</svg>
