<svg width="18" height="14" viewBox="0 0 18 14" fill="none" xmlns="http://www.w3.org/2000/svg">
<path d="M4.36468 1.604C4.75068 1.164 5.12368 1.017 5.41868 1.001C5.72068 0.985 5.99868 1.103 6.19668 1.293C6.39868 1.486 6.49268 1.726 6.47868 1.935C6.46668 2.122 6.36168 2.365 5.98868 2.581C4.75168 3.293 4.11668 3.97 3.79468 4.515C3.63468 4.787 3.55468 5.022 3.51768 5.204C3.49868 5.294 3.49068 5.37 3.48868 5.429C3.48663 5.46968 3.48764 5.51047 3.49168 5.551V5.553C3.50453 5.67589 3.56242 5.78966 3.6542 5.87239C3.74597 5.95511 3.86512 6.00093 3.98868 6.001H6.98868C7.12129 6.001 7.24847 5.94832 7.34223 5.85455C7.436 5.76079 7.48868 5.63361 7.48868 5.501C7.48868 5.36839 7.436 5.24121 7.34223 5.14745C7.24847 5.05368 7.12129 5.001 6.98868 5.001H4.66768C4.88668 4.642 5.37768 4.086 6.48668 3.447C7.10168 3.093 7.43868 2.573 7.47668 2C7.51268 1.448 7.26468 0.932 6.88668 0.57C6.68501 0.376474 6.44583 0.22632 6.18389 0.128802C5.92195 0.0312837 5.64281 -0.0115307 5.36368 0.00300002C4.75668 0.035 4.14368 0.338 3.61168 0.946C3.56541 0.994881 3.52948 1.0526 3.50606 1.1157C3.48263 1.1788 3.47218 1.24598 3.47534 1.31322C3.47851 1.38045 3.49521 1.44635 3.52446 1.50698C3.5537 1.5676 3.59489 1.62169 3.64554 1.66602C3.6962 1.71034 3.75528 1.74398 3.81925 1.76492C3.88322 1.78586 3.95075 1.79367 4.01781 1.78787C4.08487 1.78208 4.15007 1.76281 4.2095 1.73122C4.26893 1.69962 4.32137 1.65635 4.36368 1.604H4.36468ZM2.25068 0.0739999C2.32325 0.118883 2.38313 0.181593 2.42461 0.25616C2.4661 0.330727 2.48781 0.41467 2.48768 0.5V5.5C2.48768 5.63261 2.435 5.75979 2.34123 5.85355C2.24747 5.94732 2.12029 6 1.98768 6C1.85507 6 1.7279 5.94732 1.63413 5.85355C1.54036 5.75979 1.48768 5.63261 1.48768 5.5V1.309L0.70968 1.697C0.591725 1.75149 0.457191 1.75792 0.334575 1.71493C0.21196 1.67194 0.110895 1.58291 0.0527869 1.4667C-0.00532079 1.35048 -0.0159065 1.21621 0.0232721 1.09232C0.0624507 0.96844 0.148316 0.864671 0.26268 0.803L1.76468 0.053C1.84086 0.0149867 1.92549 -0.00294452 2.01054 0.000905514C2.09559 0.00475555 2.17825 0.0302594 2.25068 0.075V0.0739999ZM10.5227 1C10.1927 1 9.77668 1.142 9.35968 1.605C9.27083 1.70353 9.14648 1.76273 9.01399 1.76957C8.88149 1.77642 8.75171 1.73035 8.65318 1.6415C8.55465 1.55265 8.49545 1.4283 8.48861 1.29581C8.48176 1.16332 8.52783 1.03353 8.61668 0.935C9.19968 0.29 9.87668 0 10.5237 0C11.1577 0 11.7257 0.28 12.0857 0.7C12.4467 1.119 12.6277 1.724 12.3607 2.312C12.2293 2.59009 12.0255 2.82772 11.7707 3C12.0407 3.19 12.2397 3.421 12.3607 3.69C12.6277 4.277 12.4467 4.883 12.0857 5.303C11.7257 5.722 11.1577 6.002 10.5227 6.002C9.87568 6.002 9.19868 5.712 8.61568 5.064C8.57175 5.01515 8.53788 4.95812 8.51599 4.89618C8.4941 4.83424 8.48463 4.76859 8.48811 4.70298C8.49159 4.63738 8.50796 4.5731 8.53628 4.51382C8.56461 4.45455 8.60433 4.40143 8.65318 4.3575C8.70203 4.31357 8.75906 4.2797 8.821 4.25781C8.88294 4.23592 8.94859 4.22645 9.0142 4.22993C9.0798 4.23341 9.14408 4.24978 9.20336 4.2781C9.26263 4.30643 9.31575 4.34615 9.35968 4.395C9.77668 4.859 10.1937 5.002 10.5227 5.002C10.8647 5.002 11.1567 4.849 11.3277 4.651C11.4977 4.453 11.5197 4.256 11.4507 4.102C11.3737 3.933 11.1147 3.656 10.3767 3.487C10.2662 3.46182 10.1676 3.39988 10.0969 3.31131C10.0263 3.22274 9.98778 3.1128 9.98778 2.9995C9.98778 2.8862 10.0263 2.77626 10.0969 2.68769C10.1676 2.59912 10.2662 2.53718 10.3767 2.512C11.1147 2.344 11.3737 2.067 11.4507 1.899C11.5207 1.746 11.4977 1.549 11.3277 1.351C11.226 1.23888 11.1016 1.14961 10.9628 1.08911C10.8241 1.0286 10.6741 0.99823 10.5227 1ZM1.48768 12.5V6.914C1.74123 7.00401 2.01435 7.02403 2.27832 6.97194C2.54228 6.91985 2.78733 6.79758 2.98768 6.618C3.25468 6.857 3.60668 7.001 3.98868 7.001H6.98868C7.26702 7.00099 7.53986 6.92354 7.77669 6.77731C8.01351 6.63108 8.20499 6.42184 8.32968 6.173C8.98668 6.718 9.74568 7.002 10.5237 7.002C11.4497 7.002 12.2937 6.594 12.8437 5.955C13.3937 5.315 13.7367 4.301 13.2717 3.276C13.2288 3.18106 13.18 3.08888 13.1257 3H15.9877C16.3855 3 16.767 3.15804 17.0483 3.43934C17.3296 3.72064 17.4877 4.10218 17.4877 4.5V12.5C17.4877 12.8978 17.3296 13.2794 17.0483 13.5607C16.767 13.842 16.3855 14 15.9877 14H2.98768C2.58986 14 2.20832 13.842 1.92702 13.5607C1.64572 13.2794 1.48768 12.8978 1.48768 12.5ZM4.98768 11C4.85507 11 4.7279 11.0527 4.63413 11.1464C4.54036 11.2402 4.48768 11.3674 4.48768 11.5C4.48768 11.6326 4.54036 11.7598 4.63413 11.8536C4.7279 11.9473 4.85507 12 4.98768 12H13.9877C14.1203 12 14.2475 11.9473 14.3412 11.8536C14.435 11.7598 14.4877 11.6326 14.4877 11.5C14.4877 11.3674 14.435 11.2402 14.3412 11.1464C14.2475 11.0527 14.1203 11 13.9877 11H4.98768ZM13.2377 6.252C13.2377 6.45158 13.317 6.64298 13.4581 6.7841C13.5992 6.92522 13.7906 7.0045 13.9902 7.0045C14.1898 7.0045 14.3812 6.92522 14.5223 6.7841C14.6634 6.64298 14.7427 6.45158 14.7427 6.252C14.7427 6.05242 14.6634 5.86102 14.5223 5.7199C14.3812 5.57878 14.1898 5.4995 13.9902 5.4995C13.7906 5.4995 13.5992 5.57878 13.4581 5.7199C13.317 5.86102 13.2377 6.05242 13.2377 6.252ZM5.73268 8.752C5.73268 8.85082 5.75214 8.94867 5.78996 9.03997C5.82778 9.13127 5.88321 9.21422 5.95308 9.2841C6.02296 9.35397 6.10591 9.4094 6.19721 9.44722C6.28851 9.48504 6.38636 9.5045 6.48518 9.5045C6.584 9.5045 6.68185 9.48504 6.77315 9.44722C6.86445 9.4094 6.9474 9.35397 7.01728 9.2841C7.08715 9.21422 7.14258 9.13127 7.1804 9.03997C7.21822 8.94867 7.23768 8.85082 7.23768 8.752C7.23768 8.55242 7.1584 8.36102 7.01728 8.2199C6.87616 8.07878 6.68476 7.9995 6.48518 7.9995C6.2856 7.9995 6.0942 8.07878 5.95308 8.2199C5.81196 8.36102 5.73268 8.55242 5.73268 8.752ZM9.48968 9.505C9.68926 9.505 9.88066 9.42572 10.0218 9.2846C10.1629 9.14348 10.2422 8.95208 10.2422 8.7525C10.2422 8.55292 10.1629 8.36152 10.0218 8.2204C9.88066 8.07928 9.68926 8 9.48968 8C9.2901 8 9.0987 8.07928 8.95758 8.2204C8.81646 8.36152 8.73718 8.55292 8.73718 8.7525C8.73718 8.95208 8.81646 9.14348 8.95758 9.2846C9.0987 9.42572 9.2901 9.505 9.48968 9.505ZM11.7427 8.752C11.7427 8.95158 11.822 9.14298 11.9631 9.2841C12.1042 9.42522 12.2956 9.5045 12.4952 9.5045C12.6948 9.5045 12.8862 9.42522 13.0273 9.2841C13.1684 9.14298 13.2477 8.95158 13.2477 8.752C13.2477 8.55242 13.1684 8.36102 13.0273 8.2199C12.8862 8.07878 12.6948 7.9995 12.4952 7.9995C12.2956 7.9995 12.1042 8.07878 11.9631 8.2199C11.822 8.36102 11.7427 8.55242 11.7427 8.752Z" fill="#FFC016"/>
</svg>
