<svg width="18" height="18" viewBox="0 0 18 18" fill="none" xmlns="http://www.w3.org/2000/svg">
<circle cx="9" cy="9" r="9" fill="#FFC016"/>
<path d="M9.85227 13.1193C9.28977 13.1193 8.78835 13.0227 8.34801 12.8295C7.91051 12.6364 7.5625 12.3679 7.30398 12.0241C7.0483 11.6776 6.90909 11.2756 6.88636 10.8182H7.96023C7.98295 11.0994 8.07955 11.3423 8.25 11.5469C8.42045 11.7486 8.64347 11.9048 8.91903 12.0156C9.1946 12.1264 9.5 12.1818 9.83523 12.1818C10.2102 12.1818 10.5426 12.1165 10.8324 11.9858C11.1222 11.8551 11.3494 11.6733 11.5142 11.4403C11.679 11.2074 11.7614 10.9375 11.7614 10.6307C11.7614 10.3097 11.6818 10.027 11.5227 9.78267C11.3636 9.53551 11.1307 9.34233 10.8239 9.20312C10.517 9.06392 10.142 8.99432 9.69886 8.99432H9V8.05682H9.69886C10.0455 8.05682 10.3494 7.99432 10.6108 7.86932C10.875 7.74432 11.081 7.56818 11.2287 7.34091C11.3793 7.11364 11.4545 6.84659 11.4545 6.53977C11.4545 6.24432 11.3892 5.98722 11.2585 5.76847C11.1278 5.54972 10.9432 5.37926 10.7045 5.2571C10.4688 5.13494 10.1903 5.07386 9.86932 5.07386C9.56818 5.07386 9.28409 5.12926 9.01705 5.24006C8.75284 5.34801 8.53693 5.50568 8.36932 5.71307C8.2017 5.91761 8.1108 6.16477 8.09659 6.45455H7.07386C7.09091 5.99716 7.22869 5.59659 7.48722 5.25284C7.74574 4.90625 8.08381 4.63636 8.50142 4.44318C8.92188 4.25 9.38352 4.15341 9.88636 4.15341C10.4261 4.15341 10.8892 4.26278 11.2756 4.48153C11.6619 4.69744 11.9588 4.98295 12.1662 5.33807C12.3736 5.69318 12.4773 6.0767 12.4773 6.48864C12.4773 6.98011 12.348 7.39915 12.0895 7.74574C11.8338 8.09233 11.4858 8.33239 11.0455 8.46591V8.53409C11.5966 8.625 12.027 8.85937 12.3366 9.23722C12.6463 9.61222 12.8011 10.0767 12.8011 10.6307C12.8011 11.1051 12.6719 11.5312 12.4134 11.9091C12.1577 12.2841 11.8082 12.5795 11.3651 12.7955C10.9219 13.0114 10.4176 13.1193 9.85227 13.1193Z" fill="white"/>
</svg>
