<svg width="18" height="18" viewBox="0 0 18 18" fill="none" xmlns="http://www.w3.org/2000/svg">
<circle cx="9" cy="9" r="9" fill="#FFC016"/>
<path d="M6.90341 13V12.233L9.78409 9.07955C10.1222 8.71023 10.4006 8.3892 10.6193 8.11648C10.8381 7.84091 11 7.58239 11.1051 7.34091C11.2131 7.09659 11.267 6.84091 11.267 6.57386C11.267 6.26705 11.1932 6.00142 11.0455 5.77699C10.9006 5.55256 10.7017 5.37926 10.4489 5.2571C10.196 5.13494 9.91193 5.07386 9.59659 5.07386C9.26136 5.07386 8.96875 5.14347 8.71875 5.28267C8.47159 5.41903 8.27983 5.6108 8.14347 5.85795C8.00994 6.10511 7.94318 6.39489 7.94318 6.72727H6.9375C6.9375 6.21591 7.0554 5.76705 7.29119 5.38068C7.52699 4.99432 7.84801 4.69318 8.25426 4.47727C8.66335 4.26136 9.12216 4.15341 9.63068 4.15341C10.142 4.15341 10.5952 4.26136 10.9901 4.47727C11.3849 4.69318 11.6946 4.98437 11.919 5.35085C12.1435 5.71733 12.2557 6.125 12.2557 6.57386C12.2557 6.89489 12.1974 7.20881 12.081 7.51562C11.9673 7.8196 11.7685 8.15909 11.4844 8.53409C11.2031 8.90625 10.8125 9.3608 10.3125 9.89773L8.35227 11.9943V12.0625H12.4091V13H6.90341Z" fill="white"/>
</svg>
