<svg width="28" height="25" viewBox="0 0 28 25" fill="none" xmlns="http://www.w3.org/2000/svg">
<path d="M0.0878781 2.78528C1.42041 1.08211 3.6907 0.0381728 6.14412 0C6.48348 0 6.75818 0.227377 6.75818 0.507864C6.75858 0.78835 6.48348 1.01573 6.14412 1.01573C4.12082 1.05058 2.24893 1.90864 1.14129 3.30842C1.03005 3.46144 0.830049 3.55504 0.614386 3.55471C0.502739 3.55471 0.393501 3.52949 0.297918 3.48235C0.00715447 3.33796 -0.0872228 3.02594 0.0878781 2.78528Z" fill="white"/>
<path d="M5.52943 2.53897H5.52983C5.86919 2.53897 6.14429 2.76668 6.14429 3.04717C6.14429 3.32765 5.86878 3.55503 5.52943 3.55503C4.674 3.59619 3.93304 4.06024 3.65392 4.72975C3.57079 4.93722 3.33665 5.07762 3.07199 5.07829H3.07159C3.00613 5.07829 2.94066 5.06966 2.87841 5.0524C2.55673 4.96377 2.38243 4.67598 2.49006 4.4101C2.51777 4.33176 3.26918 2.53897 5.52943 2.53897Z" fill="white"/>
<path d="M21.5085 23.9489C21.6651 23.931 25.3652 23.4404 25.9049 20.3182C25.9547 20.043 26.2627 19.8525 26.5957 19.89C26.9318 19.9282 27.1672 20.1841 27.1214 20.4619C26.4491 24.3456 21.7326 24.9497 21.6852 24.955C21.6563 24.9587 21.6266 24.9603 21.5973 24.9603L21.5969 24.9597C21.2916 24.9593 21.033 24.7741 20.9892 24.5248C20.9402 24.247 21.1728 23.9894 21.5085 23.9489Z" fill="white"/>
<path d="M21.4001 21.4315C22.3544 21.1331 23.1078 20.5104 23.4688 19.7214C23.5789 19.4618 23.9182 19.322 24.2351 19.4044C24.5588 19.4887 24.7391 19.7745 24.6367 20.042C24.1508 21.1331 23.1106 21.9928 21.7909 22.3948C21.7283 22.412 21.6628 22.4207 21.5969 22.4207L21.5973 22.4213C21.3315 22.4223 21.0949 22.2823 21.011 22.0738C20.9042 21.8076 21.0781 21.5201 21.4001 21.4315Z" fill="white"/>
<path d="M1.79802 13.479C2.53573 11.6561 3.5832 9.60324 4.08554 7.7384C4.22512 7.17003 4.8453 6.7698 5.54647 6.79565C6.33454 6.8672 6.90338 7.45354 6.81647 8.10517C6.81219 8.1351 6.80726 8.16502 6.80034 8.19468C6.78685 8.288 6.45305 10.3427 6.11926 11.6517C6.11794 11.6528 6.11168 11.6585 6.11168 11.6585C7.87941 13.1193 8.16317 15.6137 6.59197 16.9127C6.39577 17.0754 6.39577 17.3382 6.59197 17.5006C6.78849 17.6633 7.10747 17.6639 7.30433 17.5012L7.30466 17.5006C9.26562 15.8801 8.98351 12.8486 6.83392 11.0616L13.1069 5.87684C13.599 5.47062 14.3966 5.47062 14.8881 5.87738C14.9187 5.90268 14.9477 5.92907 14.975 5.9571C15.3756 6.3946 15.3164 7.01086 14.8374 7.39069L10.7924 10.7335C10.5959 10.8962 10.5959 11.1598 10.7927 11.3222C10.9896 11.4847 11.3082 11.4847 11.5047 11.322L17.0245 6.76001C17.5163 6.35379 18.3133 6.35379 18.8051 6.76001C18.8357 6.78531 18.8644 6.81197 18.8917 6.83945C19.2923 7.27723 19.2331 7.89349 18.7541 8.27331L13.2853 12.7931C13.0885 12.9555 13.0885 13.2197 13.285 13.3824C13.4815 13.5449 13.8005 13.5449 13.9973 13.3827L19.1103 9.15621C19.5698 8.76033 20.3154 8.71163 20.8451 9.04248C21.3846 9.40516 21.4659 10.0606 21.0271 10.5063C21.0001 10.5337 20.9718 10.5601 20.9415 10.5852L15.7766 14.8541C15.5748 15.0122 15.5659 15.2758 15.7575 15.4423C15.9491 15.6091 16.2677 15.6159 16.4695 15.4576C16.4758 15.4527 16.4824 15.4475 16.4886 15.4423L19.8223 12.6886C20.2822 12.2927 21.0278 12.2443 21.5571 12.5757C22.0967 12.9381 22.1786 13.5936 21.7401 14.0395C21.7128 14.0672 21.6835 14.0939 21.6529 14.1192L17.2721 17.7409L14.3512 20.1542C11.5979 22.4302 7.13381 22.4299 4.38016 20.1545C4.38016 20.1542 4.38016 20.1545 4.37983 20.1542L3.50584 19.4316C1.6173 17.8758 0.955306 15.5705 1.79802 13.479Z" fill="#FFC016"/>
</svg>
